<svg  viewBox="0 0 323 349" fill="none" xmlns="http://www.w3.org/2000/svg">
<path d="M224.385 83C247.029 83 265.385 64.6437 265.385 42C265.385 19.3563 247.029 1 224.385 1C201.742 1 183.385 19.3563 183.385 42C183.385 64.6437 201.742 83 224.385 83Z" stroke="#54AFEF" stroke-miterlimit="10"/>
<path d="M215.647 83C238.291 83 256.647 64.6437 256.647 42C256.647 19.3563 238.291 1 215.647 1C193.004 1 174.647 19.3563 174.647 42C174.647 64.6437 193.004 83 215.647 83Z" stroke="#54AFEF" stroke-miterlimit="10"/>
<path d="M207.078 83C229.722 83 248.078 64.6437 248.078 42C248.078 19.3563 229.722 1 207.078 1C184.434 1 166.078 19.3563 166.078 42C166.078 64.6437 184.434 83 207.078 83Z" stroke="#54AFEF" stroke-miterlimit="10"/>
<path d="M198.508 83C221.152 83 239.508 64.6437 239.508 42C239.508 19.3563 221.152 1 198.508 1C175.865 1 157.508 19.3563 157.508 42C157.508 64.6437 175.865 83 198.508 83Z" stroke="#54AFEF" stroke-miterlimit="10"/>
<path d="M189.77 83C212.414 83 230.77 64.6437 230.77 42C230.77 19.3563 212.414 1 189.77 1C167.127 1 148.77 19.3563 148.77 42C148.77 64.6437 167.127 83 189.77 83Z" stroke="#54AFEF" stroke-miterlimit="10"/>
<path d="M181.201 83C203.844 83 222.201 64.6437 222.201 42C222.201 19.3563 203.844 1 181.201 1C158.557 1 140.201 19.3563 140.201 42C140.201 64.6437 158.557 83 181.201 83Z" stroke="#54AFEF" stroke-miterlimit="10"/>
<path d="M172.631 83C195.275 83 213.631 64.6437 213.631 42C213.631 19.3563 195.275 1 172.631 1C149.988 1 131.631 19.3563 131.631 42C131.631 64.6437 149.988 83 172.631 83Z" stroke="#54AFEF" stroke-miterlimit="10"/>
<path d="M164.062 83C186.705 83 205.062 64.6437 205.062 42C205.062 19.3563 186.705 1 164.062 1C141.418 1 123.062 19.3563 123.062 42C123.062 64.6437 141.418 83 164.062 83Z" stroke="#54AFEF" stroke-miterlimit="10"/>
<path d="M155.324 83C177.967 83 196.324 64.6437 196.324 42C196.324 19.3563 177.967 1 155.324 1C132.68 1 114.324 19.3563 114.324 42C114.324 64.6437 132.68 83 155.324 83Z" stroke="#54AFEF" stroke-miterlimit="10"/>
<path d="M146.754 83C169.398 83 187.754 64.6437 187.754 42C187.754 19.3563 169.398 1 146.754 1C124.11 1 105.754 19.3563 105.754 42C105.754 64.6437 124.11 83 146.754 83Z" stroke="#54AFEF" stroke-miterlimit="10"/>
<path d="M138.184 83C160.828 83 179.184 64.6437 179.184 42C179.184 19.3563 160.828 1 138.184 1C115.541 1 97.1843 19.3563 97.1843 42C97.1843 64.6437 115.541 83 138.184 83Z" stroke="#54AFEF" stroke-miterlimit="10"/>
<path d="M129.615 83C152.258 83 170.615 64.6437 170.615 42C170.615 19.3563 152.258 1 129.615 1C106.971 1 88.6146 19.3563 88.6146 42C88.6146 64.6437 106.971 83 129.615 83Z" stroke="#54AFEF" stroke-miterlimit="10"/>
<path d="M120.877 83C143.521 83 161.877 64.6437 161.877 42C161.877 19.3563 143.521 1 120.877 1C98.2334 1 79.8771 19.3563 79.8771 42C79.8771 64.6437 98.2334 83 120.877 83Z" stroke="#54AFEF" stroke-miterlimit="10"/>
<path d="M112.307 83C134.951 83 153.307 64.6437 153.307 42C153.307 19.3563 134.951 1 112.307 1C89.6638 1 71.3074 19.3563 71.3074 42C71.3074 64.6437 89.6638 83 112.307 83Z" stroke="#54AFEF" stroke-miterlimit="10"/>
<path d="M103.738 83C126.382 83 144.738 64.6437 144.738 42C144.738 19.3563 126.382 1 103.738 1C81.0942 1 62.7378 19.3563 62.7378 42C62.7378 64.6437 81.0942 83 103.738 83Z" stroke="#54AFEF" stroke-miterlimit="10"/>
<path d="M95 83C117.644 83 136 64.6437 136 42C136 19.3563 117.644 1 95 1C72.3563 1 54 19.3563 54 42C54 64.6437 72.3563 83 95 83Z" stroke="#54AFEF" stroke-miterlimit="10"/>
<path d="M76.3947 101.382C81.879 104.872 72.0322 111.976 66.4233 115.092C61.0221 120.701 51.2169 127.806 55.2054 111.353C59.194 94.9002 64.3459 95.7727 66.4233 98.2656C75.1483 95.1495 72.6554 82.062 76.3947 83.3085C79.1135 84.2147 75.8608 93.7692 73.3738 99.7142C74.0615 99.9938 75.0389 100.519 76.3947 101.382Z" fill="#DCC392"/>
<path d="M51.4661 117.585L54.5822 111.353L67.0465 115.092L63.9304 120.701L51.4661 117.585Z" fill="#C4C4C4"/>
<path d="M197.921 198.603L190.443 172.428L237.184 153.108L240.3 168.066L224.72 192.371L197.921 198.603Z" fill="#D3B475"/>
<path d="M243.416 167.442C235.439 162.457 204.777 187.385 190.443 200.473L255.257 179.907L243.416 167.442Z" fill="#C4C4C4"/>
<path d="M173.616 120.078C177.605 100.634 190.443 93.2799 199.168 89.5406L234.691 153.108C233.652 155.601 230.952 161.584 228.459 165.573C225.343 170.558 180.533 173.674 177.355 173.674C170.5 173.674 173.824 156.848 173.616 146.876L163.645 136.905C163.645 136.905 169.628 139.522 173.616 120.078Z" fill="#E8D2A7"/>
<ellipse cx="232.198" cy="134.412" rx="8.10178" ry="8.725" fill="#E8D2A7"/>
<path d="M221.604 143.137V131.919C210.386 145.007 199.168 103.251 196.052 96.3959C193.559 90.9117 182.964 87.4632 177.979 86.4245C180.679 84.1394 188.075 78.946 196.052 76.4531C206.023 73.337 237.807 87.0477 242.17 94.5263C246.532 102.005 250.895 120.701 251.518 127.557C252.016 133.041 242.585 148.954 237.807 156.224H235.314L229.705 143.137C232.406 143.76 237.807 143.012 237.807 135.035C237.807 127.058 230.744 131.711 227.213 135.035L221.604 143.137Z" fill="#0C142F" stroke="#111116"/>
<path d="M116.99 229.764C208.229 180.904 277.572 172.013 300.839 173.674C321.778 173.674 324.105 222.701 322.651 247.214C293.36 254.277 210.63 297.569 81.5 321.5C-47.63 345.431 5.43502 185.723 52.1761 114.469L65.8868 118.832C44.9052 176.167 25.7518 278.624 116.99 229.764Z" fill="#0C142F"/>
<path d="M179.5 348.5L144 281L295 246L179.5 348.5Z" fill="#0C142F"/>
</svg>
