<svg viewBox="0 0 388 486" fill="none" xmlns="http://www.w3.org/2000/svg">
<path d="M224.665 280.648L234.384 255.24L189.53 231.947L184.344 250.36L198.528 272.116L224.665 280.648Z" fill="#C09747"/>
<path d="M226.694 272.78C217.227 281.25 194.516 260.532 184.344 249.114L178.739 261.57L162.547 272.78L153.205 357.479L330.699 328.208C302.051 292.086 238.527 262.193 226.694 272.78Z" fill="#E88D17"/>
<path d="M192.441 407.301L250.36 432.836V391.732L192.441 404.81V407.301Z" fill="#ACACAC"/>
<path d="M259.086 210.944C258.408 191.12 246.99 181.728 239.019 176.585L197.444 208.633L193.389 233.271C193.996 235.901 195.656 242.247 197.444 246.593C199.681 252.027 243.307 262.591 246.437 263.123C253.191 264.269 252.731 247.135 254.604 237.346L266.095 229.19C266.095 229.19 259.763 230.768 259.086 210.944Z" fill="#D1B06E"/>
<path d="M194.932 232.299L188.704 235.413C174.38 222.334 176.248 227.939 171.266 221.712C166.284 215.484 168.152 214.238 168.775 212.37C169.273 210.875 176.041 205.934 179.362 203.651C181.438 201.782 184.344 197.547 179.362 195.555C174.38 193.562 176.041 186.836 177.494 183.722C183.722 171.889 194.932 162.547 208.633 155.074C219.594 149.095 224.825 152.167 226.071 154.451C232.548 151.96 236.243 153.413 237.281 154.451C240.769 154.949 242.471 161.301 242.886 164.415C252.851 167.529 249.737 168.152 251.605 171.266C253.1 173.757 250.152 175.625 248.491 176.248C246.415 176.041 241.267 176.373 237.281 179.362C233.295 182.352 233.544 185.175 234.167 186.213C236.658 187.458 236.658 194.309 232.922 194.309C229.932 194.309 227.109 195.139 226.071 195.555C220.092 197.547 218.182 200.537 217.975 201.782C220.964 205.768 212.577 213.408 208.01 216.729C210.003 211.747 207.18 210.501 205.519 210.501C197.547 211.498 197.63 215.899 198.668 217.975C207.636 228.438 199.914 231.884 194.932 232.299Z" fill="#523305"/>
<path d="M188.704 236.036L194.932 232.299C198.253 232.091 204.398 230.306 202.405 224.825C199.914 217.975 194.309 214.238 202.405 211.124C208.882 208.633 209.256 213.408 208.633 216.106C214.238 212.162 223.455 203.402 215.484 199.914C205.519 195.555 204.896 203.651 208.633 203.651" stroke="#432A04"/>
<path d="M242.477 164.462C242.27 157.404 237.246 146.402 218.812 158.857C200.377 171.313 211.131 171.521 218.812 170.067" stroke="#432A04"/>
<path d="M189.327 236.036L178.739 227.317C173.757 224.618 164.789 217.85 168.775 212.37C173.757 205.519 188.704 201.16 178.739 194.932C168.775 188.704 189.327 163.17 208.01 155.074C222.957 148.597 225.863 152.375 225.448 155.074" stroke="#432A04"/>
<path d="M217.352 201.16C219.428 198.668 225.074 193.935 231.053 194.932C238.527 196.177 238.527 180.608 223.58 184.967C208.633 189.327 224.825 168.152 227.939 174.38" stroke="#432A04"/>
<path d="M233.544 185.59C233.752 182.684 236.658 176.746 246.623 176.248C259.079 175.625 247.868 160.056 238.527 165.038C231.053 169.024 235.413 171.266 238.527 171.889" stroke="#432A04"/>
<path d="M100.891 396.091C86.5671 386.127 126.426 357.479 154.451 357.479C161.422 337.749 194.847 273.966 171.266 267.175C74 288 36.7016 341.65 23 384C-6.18099 474.194 143.863 445.291 211.747 387.996L203.651 377.408C146.354 398.582 115.215 406.056 100.891 396.091Z" fill="#E88D17"/>
<path d="M212.104 391.365C198.015 391.845 202.32 381.96 206.234 376.958C208.843 376.357 214.975 375.517 218.627 376.958C222.28 378.398 220.149 379.559 218.627 379.959C231.021 385.362 227.107 395.567 225.15 391.365C223.193 387.163 216.018 385.962 216.018 387.763C216.018 389.204 213.409 390.765 212.104 391.365Z" fill="#D1B06E"/>
<path d="M254.719 348.137C254.719 346.466 255.816 345.051 257.329 344.573C258.055 344.344 258.834 344.342 259.587 344.227L383.127 325.267C383.88 325.152 384.65 325.049 385.395 325.21C386.903 325.535 387.995 326.54 387.995 328.208V406.056C387.995 407.622 388.108 410.038 387.261 411.113C386.722 411.796 385.696 411.737 384.839 411.887L259.743 433.855C258.887 434.006 257.992 434.154 257.175 433.856C255.742 433.333 254.719 431.958 254.719 430.345V348.137Z" fill="#C4C4C4"/>
<path d="M142.5 388L126 355L250 341.5V382.5L236 386L216 366.5L142.5 388Z" fill="#E88D17"/>
</svg>
