<svg viewBox="0 0 245 227" fill="none" xmlns="http://www.w3.org/2000/svg">
<path d="M101.041 33.1442C111.265 33.1442 119.552 25.9611 119.552 17.1003C119.552 8.23951 111.265 1.05643 101.041 1.05643C90.8176 1.05643 82.5298 8.23951 82.5298 17.1003C82.5298 25.9611 90.8176 33.1442 101.041 33.1442Z" stroke="#54AFEF" stroke-width="0.5" stroke-miterlimit="10"/>
<path d="M97.0963 33.1442C107.32 33.1442 115.608 25.9611 115.608 17.1003C115.608 8.23951 107.32 1.05643 97.0963 1.05643C86.8728 1.05643 78.585 8.23951 78.585 17.1003C78.585 25.9611 86.8728 33.1442 97.0963 33.1442Z" stroke="#54AFEF" stroke-width="0.5" stroke-miterlimit="10"/>
<path d="M93.2271 33.1442C103.451 33.1442 111.738 25.9611 111.738 17.1003C111.738 8.23951 103.451 1.05643 93.2271 1.05643C83.0036 1.05643 74.7158 8.23951 74.7158 17.1003C74.7158 25.9611 83.0036 33.1442 93.2271 33.1442Z" stroke="#54AFEF" stroke-width="0.5" stroke-miterlimit="10"/>
<path d="M89.358 33.1442C99.5815 33.1442 107.869 25.9611 107.869 17.1003C107.869 8.23951 99.5815 1.05643 89.358 1.05643C79.1345 1.05643 70.8467 8.23951 70.8467 17.1003C70.8467 25.9611 79.1345 33.1442 89.358 33.1442Z" stroke="#54AFEF" stroke-width="0.5" stroke-miterlimit="10"/>
<path d="M85.4132 33.1442C95.6367 33.1442 103.924 25.9611 103.924 17.1003C103.924 8.23951 95.6367 1.05643 85.4132 1.05643C75.1896 1.05643 66.9019 8.23951 66.9019 17.1003C66.9019 25.9611 75.1896 33.1442 85.4132 33.1442Z" stroke="#54AFEF" stroke-width="0.5" stroke-miterlimit="10"/>
<path d="M81.5435 33.1442C91.7671 33.1442 100.055 25.9611 100.055 17.1003C100.055 8.23951 91.7671 1.05643 81.5435 1.05643C71.32 1.05643 63.0322 8.23951 63.0322 17.1003C63.0322 25.9611 71.32 33.1442 81.5435 33.1442Z" stroke="#54AFEF" stroke-width="0.5" stroke-miterlimit="10"/>
<path d="M77.6744 33.1442C87.8979 33.1442 96.1857 25.9611 96.1857 17.1003C96.1857 8.23951 87.8979 1.05643 77.6744 1.05643C67.4509 1.05643 59.1631 8.23951 59.1631 17.1003C59.1631 25.9611 67.4509 33.1442 77.6744 33.1442Z" stroke="#54AFEF" stroke-width="0.5" stroke-miterlimit="10"/>
<path d="M73.8053 33.1442C84.0288 33.1442 92.3166 25.9611 92.3166 17.1003C92.3166 8.23951 84.0288 1.05643 73.8053 1.05643C63.5817 1.05643 55.2939 8.23951 55.2939 17.1003C55.2939 25.9611 63.5817 33.1442 73.8053 33.1442Z" stroke="#54AFEF" stroke-width="0.5" stroke-miterlimit="10"/>
<path d="M69.8604 33.1442C80.0839 33.1442 88.3717 25.9611 88.3717 17.1003C88.3717 8.23951 80.0839 1.05643 69.8604 1.05643C59.6369 1.05643 51.3491 8.23951 51.3491 17.1003C51.3491 25.9611 59.6369 33.1442 69.8604 33.1442Z" stroke="#54AFEF" stroke-width="0.5" stroke-miterlimit="10"/>
<path d="M65.9913 33.1442C76.2148 33.1442 84.5026 25.9611 84.5026 17.1003C84.5026 8.23951 76.2148 1.05643 65.9913 1.05643C55.7678 1.05643 47.48 8.23951 47.48 17.1003C47.48 25.9611 55.7678 33.1442 65.9913 33.1442Z" stroke="#54AFEF" stroke-width="0.5" stroke-miterlimit="10"/>
<path d="M62.1221 33.1442C72.3457 33.1442 80.6335 25.9611 80.6335 17.1003C80.6335 8.23951 72.3457 1.05643 62.1221 1.05643C51.8986 1.05643 43.6108 8.23951 43.6108 17.1003C43.6108 25.9611 51.8986 33.1442 62.1221 33.1442Z" stroke="#54AFEF" stroke-width="0.5" stroke-miterlimit="10"/>
<path d="M58.253 33.1442C68.4765 33.1442 76.7643 25.9611 76.7643 17.1003C76.7643 8.23951 68.4765 1.05643 58.253 1.05643C48.0295 1.05643 39.7417 8.23951 39.7417 17.1003C39.7417 25.9611 48.0295 33.1442 58.253 33.1442Z" stroke="#54AFEF" stroke-width="0.5" stroke-miterlimit="10"/>
<path d="M54.3077 33.1442C64.5312 33.1442 72.819 25.9611 72.819 17.1003C72.819 8.23951 64.5312 1.05643 54.3077 1.05643C44.0842 1.05643 35.7964 8.23951 35.7964 17.1003C35.7964 25.9611 44.0842 33.1442 54.3077 33.1442Z" stroke="#54AFEF" stroke-width="0.5" stroke-miterlimit="10"/>
<path d="M50.4386 33.1442C60.6621 33.1442 68.9499 25.9611 68.9499 17.1003C68.9499 8.23951 60.6621 1.05643 50.4386 1.05643C40.215 1.05643 31.9272 8.23951 31.9272 17.1003C31.9272 25.9611 40.215 33.1442 50.4386 33.1442Z" stroke="#54AFEF" stroke-width="0.5" stroke-miterlimit="10"/>
<path d="M46.5694 33.1442C56.7929 33.1442 65.0807 25.9611 65.0807 17.1003C65.0807 8.23951 56.7929 1.05643 46.5694 1.05643C36.3459 1.05643 28.0581 8.23951 28.0581 17.1003C28.0581 25.9611 36.3459 33.1442 46.5694 33.1442Z" stroke="#54AFEF" stroke-width="0.5" stroke-miterlimit="10"/>
<path d="M42.6246 33.1442C52.8481 33.1442 61.1359 25.9611 61.1359 17.1003C61.1359 8.23952 52.8481 1.05643 42.6246 1.05643C32.4011 1.05643 24.1133 8.23952 24.1133 17.1003C24.1133 25.9611 32.4011 33.1442 42.6246 33.1442Z" stroke="#54AFEF" stroke-width="0.5" stroke-miterlimit="10"/>
<path d="M34.224 60.9973C36.7001 62.573 32.2543 65.7807 29.7219 67.1876C27.2833 69.72 22.8563 72.9277 24.6571 65.4993C26.4579 58.0709 28.784 58.4649 29.7219 59.5904C33.6612 58.1835 32.5357 52.2746 34.224 52.8373C35.4515 53.2465 33.9829 57.5603 32.86 60.2444C33.1705 60.3707 33.6118 60.6077 34.224 60.9973Z" fill="#DCC392"/>
<path d="M22.9692 68.3131L24.3761 65.4993L30.0037 67.1876L28.5968 69.72L22.9692 68.3131Z" fill="#C4C4C4"/>
<path d="M89.0928 104.892L85.7163 93.0744L106.82 84.3517L108.227 91.1047L101.192 102.078L89.0928 104.892Z" fill="#D3B475"/>
<path d="M109.633 90.8233C106.032 88.5723 92.188 99.8274 85.7163 105.736L114.98 96.4509L109.633 90.8233Z" fill="#C4C4C4"/>
<path d="M78.1192 69.4386C79.9201 60.6596 85.7164 57.3394 89.6557 55.6511L105.694 84.3517C105.225 85.4772 104.006 88.1784 102.881 89.9792C101.474 92.2303 81.2423 93.6371 79.8075 93.6371C76.7123 93.6371 78.213 86.0399 78.1192 81.5379L73.6172 77.0358C73.6172 77.0358 76.3184 78.2176 78.1192 69.4386Z" fill="#E8D2A7"/>
<ellipse cx="104.569" cy="75.9103" rx="3.65792" ry="3.93929" fill="#E8D2A7"/>
<path d="M99.7853 79.8496V74.7848C94.7205 80.6937 89.6557 61.8414 88.2488 58.7462C87.1233 56.2701 82.3399 54.7131 80.0889 54.2442C81.3082 53.2125 84.6472 50.8676 88.2488 49.7421C92.7509 48.3352 107.101 54.5256 109.071 57.9021C111.04 61.2786 113.01 69.72 113.291 72.8151C113.517 75.2913 109.258 82.4758 107.101 85.7585H105.976L103.443 79.8496C104.663 80.131 107.101 79.7933 107.101 76.1917C107.101 72.59 103.912 74.691 102.318 76.1917L99.7853 79.8496Z" fill="#0C142F" stroke="#111116"/>
<path d="M52.5529 118.961C93.7467 96.9011 125.055 92.8868 135.559 93.6371C145.014 93.6371 146.064 115.772 145.408 126.84C132.183 130.029 94.8308 149.575 36.5292 160.38C-21.7724 171.185 2.18622 99.0771 23.2896 66.9062L29.4799 68.8759C20.0068 94.7627 11.3592 141.021 52.5529 118.961Z" fill="#0C142F"/>
<path d="M80.7756 172.57L64.7476 142.094L132.923 126.292L80.7756 172.57Z" fill="#0C142F"/>
<path d="M159.411 134.711L163.799 123.24L143.548 112.723L141.206 121.036L147.61 130.859L159.411 134.711Z" fill="#C09747"/>
<path d="M160.327 131.159C156.053 134.983 145.799 125.629 141.206 120.474L138.676 126.098L131.365 131.159L127.147 169.4L207.285 156.184C194.35 139.876 165.669 126.379 160.327 131.159Z" fill="#E88D17"/>
<path d="M144.861 191.895L171.011 203.423V184.865L144.861 190.77V191.895Z" fill="#ACACAC"/>
<path d="M174.951 103.24C174.645 94.2899 169.49 90.0493 165.891 87.7271L147.121 102.197L145.29 113.321C145.563 114.508 146.313 117.373 147.121 119.336C148.13 121.789 167.827 126.559 169.241 126.799C172.29 127.316 172.082 119.58 172.928 115.161L178.116 111.478C178.116 111.478 175.257 112.191 174.951 103.24Z" fill="#D1B06E"/>
<path d="M145.987 112.882L143.175 114.288C136.707 108.383 137.551 110.914 135.301 108.102C133.052 105.29 133.896 104.727 134.177 103.884C134.402 103.209 137.457 100.978 138.957 99.9474C139.894 99.1038 141.206 97.1918 138.957 96.292C136.707 95.3922 137.457 92.3554 138.113 90.9495C140.925 85.6069 145.987 81.3892 152.173 78.015C157.121 75.3156 159.483 76.7028 160.046 77.7338C162.97 76.609 164.638 77.2651 165.107 77.7338C166.682 77.9587 167.45 80.8268 167.638 82.2327C172.137 83.6387 170.731 83.9198 171.574 85.3258C172.249 86.4505 170.918 87.2941 170.168 87.5752C169.231 87.4815 166.907 87.6315 165.107 88.9812C163.307 90.3309 163.42 91.6056 163.701 92.0742C164.826 92.6366 164.826 95.7296 163.139 95.7296C161.789 95.7296 160.514 96.1045 160.046 96.292C157.346 97.1918 156.484 98.5414 156.39 99.1038C157.74 100.903 153.953 104.353 151.891 105.852C152.791 103.603 151.516 103.04 150.767 103.04C147.167 103.49 147.205 105.477 147.674 106.415C151.723 111.139 148.236 112.694 145.987 112.882Z" fill="#523305"/>
<path d="M143.174 114.569L145.986 112.882C147.486 112.788 150.26 111.982 149.36 109.508C148.236 106.415 145.705 104.727 149.36 103.322C152.285 102.197 152.453 104.353 152.172 105.571C154.703 103.79 158.864 99.8349 155.265 98.2602C150.766 96.292 150.485 99.9474 152.172 99.9474" stroke="#432A04"/>
<path d="M167.453 82.254C167.359 79.0673 165.091 74.0997 156.768 79.7234C148.445 85.347 153.3 85.4408 156.768 84.7847" stroke="#432A04"/>
<path d="M143.456 114.569L138.675 110.632C136.426 109.414 132.377 106.358 134.176 103.884C136.426 100.791 143.174 98.8226 138.675 96.0107C134.176 93.1989 143.456 81.6703 151.891 78.0149C158.64 75.0906 159.952 76.7965 159.764 78.0149" stroke="#432A04"/>
<path d="M156.109 98.8226C157.046 97.6979 159.596 95.5609 162.295 96.0108C165.669 96.5731 165.669 89.5435 158.921 91.5118C152.172 93.4801 159.483 83.9198 160.889 86.7317" stroke="#432A04"/>
<path d="M163.42 91.793C163.514 90.4808 164.826 87.8002 169.325 87.5752C174.948 87.294 169.887 80.2644 165.669 82.5139C162.295 84.3135 164.263 85.3257 165.669 85.6069" stroke="#432A04"/>
<path d="M103.527 186.833C97.0601 182.334 115.056 169.4 127.709 169.4C130.857 160.492 145.948 131.694 135.301 128.628C91.3862 138.031 74.5461 162.254 68.3599 181.374C55.1848 222.096 122.929 209.047 153.578 183.178L149.923 178.398C124.054 187.958 109.995 191.332 103.527 186.833Z" fill="#E88D17"/>
<path d="M153.74 184.699C147.378 184.916 149.322 180.453 151.089 178.195C152.267 177.924 155.035 177.544 156.685 178.195C158.334 178.845 157.372 179.369 156.685 179.55C162.28 181.989 160.513 186.597 159.63 184.699C158.746 182.802 155.507 182.26 155.507 183.073C155.507 183.724 154.329 184.428 153.74 184.699Z" fill="#D1B06E"/>
<path d="M172.98 165.182C172.98 164.651 173.225 164.178 173.609 163.868C174.201 163.39 175.045 163.437 175.798 163.321L230.335 154.952C231.088 154.836 231.918 154.651 232.56 155.062C232.923 155.294 233.153 155.669 233.153 156.184V191.332C233.153 191.8 233.176 192.436 233.08 192.953C232.922 193.809 231.879 193.939 231.023 194.089L175.954 203.76C175.098 203.91 174.108 204.113 173.487 203.504C173.174 203.198 172.98 202.771 172.98 202.299V165.182Z" fill="#C4C4C4"/>
<path d="M122.313 183.18L114.864 168.281L170.849 162.186V180.697L164.528 182.277L155.498 173.473L122.313 183.18Z" fill="#E88D17"/>
<path d="M207.655 108.105H207.019V103.891L205.744 104.359V103.785L207.556 103.105H207.655V108.105ZM212.628 105.982C212.628 106.723 212.501 107.273 212.249 107.633C211.996 107.993 211.6 108.173 211.062 108.173C210.532 108.173 210.139 107.998 209.883 107.647C209.628 107.294 209.496 106.767 209.487 106.068V105.224C209.487 104.492 209.613 103.949 209.866 103.593C210.119 103.238 210.516 103.06 211.056 103.06C211.591 103.06 211.985 103.232 212.238 103.576C212.491 103.918 212.621 104.447 212.628 105.162V105.982ZM211.996 105.118C211.996 104.582 211.92 104.193 211.77 103.949C211.62 103.703 211.382 103.58 211.056 103.58C210.732 103.58 210.496 103.702 210.348 103.945C210.2 104.189 210.124 104.564 210.119 105.07V106.082C210.119 106.619 210.197 107.017 210.352 107.274C210.509 107.53 210.746 107.657 211.062 107.657C211.375 107.657 211.606 107.536 211.756 107.295C211.909 107.053 211.989 106.673 211.996 106.153V105.118ZM215.516 108.105H214.88V103.891L213.605 104.359V103.785L215.417 103.105H215.516V108.105ZM219.447 108.105H218.811V103.891L217.536 104.359V103.785L219.348 103.105H219.447V108.105ZM223.377 108.105H222.742V103.891L221.467 104.359V103.785L223.278 103.105H223.377V108.105ZM228.351 105.982C228.351 106.723 228.224 107.273 227.971 107.633C227.718 107.993 227.323 108.173 226.785 108.173C226.254 108.173 225.861 107.998 225.606 107.647C225.351 107.294 225.219 106.767 225.209 106.068V105.224C225.209 104.492 225.336 103.949 225.589 103.593C225.842 103.238 226.238 103.06 226.778 103.06C227.314 103.06 227.708 103.232 227.961 103.576C228.214 103.918 228.344 104.447 228.351 105.162V105.982ZM227.718 105.118C227.718 104.582 227.643 104.193 227.493 103.949C227.342 103.703 227.104 103.58 226.778 103.58C226.455 103.58 226.219 103.702 226.071 103.945C225.923 104.189 225.846 104.564 225.842 105.07V106.082C225.842 106.619 225.919 107.017 226.074 107.274C226.231 107.53 226.468 107.657 226.785 107.657C227.097 107.657 227.329 107.536 227.479 107.295C227.632 107.053 227.711 106.673 227.718 106.153V105.118ZM231.239 108.105H230.603V103.891L229.328 104.359V103.785L231.14 103.105H231.239V108.105ZM235.169 108.105H234.534V103.891L233.259 104.359V103.785L235.07 103.105H235.169V108.105ZM240.143 105.982C240.143 106.723 240.016 107.273 239.763 107.633C239.51 107.993 239.115 108.173 238.577 108.173C238.046 108.173 237.653 107.998 237.398 107.647C237.143 107.294 237.011 106.767 237.001 106.068V105.224C237.001 104.492 237.128 103.949 237.381 103.593C237.634 103.238 238.03 103.06 238.57 103.06C239.106 103.06 239.5 103.232 239.753 103.576C240.006 103.918 240.136 104.447 240.143 105.162V105.982ZM239.51 105.118C239.51 104.582 239.435 104.193 239.285 103.949C239.134 103.703 238.896 103.58 238.57 103.58C238.247 103.58 238.011 103.702 237.863 103.945C237.715 104.189 237.638 104.564 237.634 105.07V106.082C237.634 106.619 237.711 107.017 237.866 107.274C238.023 107.53 238.26 107.657 238.577 107.657C238.889 107.657 239.121 107.536 239.271 107.295C239.424 107.053 239.503 106.673 239.51 106.153V105.118Z" fill="url(#paint0_linear)"/>
<path d="M208.697 96.5011C208.697 97.2416 208.571 97.7919 208.318 98.1519C208.065 98.512 207.67 98.692 207.132 98.692C206.601 98.692 206.208 98.5165 205.953 98.1656C205.697 97.8124 205.565 97.2861 205.556 96.5865V95.7423C205.556 95.0108 205.683 94.4674 205.936 94.1119C206.188 93.7564 206.585 93.5787 207.125 93.5787C207.66 93.5787 208.055 93.7507 208.308 94.0948C208.561 94.4366 208.69 94.9653 208.697 95.6808V96.5011ZM208.065 95.6363C208.065 95.1008 207.99 94.7112 207.839 94.4674C207.689 94.2213 207.451 94.0982 207.125 94.0982C206.801 94.0982 206.566 94.2201 206.417 94.464C206.269 94.7078 206.193 95.0826 206.188 95.5885V96.6002C206.188 97.1379 206.266 97.5356 206.421 97.7931C206.578 98.0483 206.815 98.1759 207.132 98.1759C207.444 98.1759 207.675 98.0551 207.826 97.8136C207.978 97.572 208.058 97.1915 208.065 96.672V95.6363ZM212.628 96.5011C212.628 97.2416 212.501 97.7919 212.249 98.1519C211.996 98.512 211.6 98.692 211.062 98.692C210.532 98.692 210.139 98.5165 209.883 98.1656C209.628 97.8124 209.496 97.2861 209.487 96.5865V95.7423C209.487 95.0108 209.613 94.4674 209.866 94.1119C210.119 93.7564 210.516 93.5787 211.056 93.5787C211.591 93.5787 211.985 93.7507 212.238 94.0948C212.491 94.4366 212.621 94.9653 212.628 95.6808V96.5011ZM211.996 95.6363C211.996 95.1008 211.92 94.7112 211.77 94.4674C211.62 94.2213 211.382 94.0982 211.056 94.0982C210.732 94.0982 210.496 94.2201 210.348 94.464C210.2 94.7078 210.124 95.0826 210.119 95.5885V96.6002C210.119 97.1379 210.197 97.5356 210.352 97.7931C210.509 98.0483 210.746 98.1759 211.062 98.1759C211.375 98.1759 211.606 98.0551 211.756 97.8136C211.909 97.572 211.989 97.1915 211.996 96.672V95.6363ZM216.559 96.5011C216.559 97.2416 216.432 97.7919 216.179 98.1519C215.926 98.512 215.531 98.692 214.993 98.692C214.462 98.692 214.069 98.5165 213.814 98.1656C213.559 97.8124 213.427 97.2861 213.417 96.5865V95.7423C213.417 95.0108 213.544 94.4674 213.797 94.1119C214.05 93.7564 214.446 93.5787 214.986 93.5787C215.522 93.5787 215.916 93.7507 216.169 94.0948C216.422 94.4366 216.552 94.9653 216.559 95.6808V96.5011ZM215.926 95.6363C215.926 95.1008 215.851 94.7112 215.701 94.4674C215.55 94.2213 215.312 94.0982 214.986 94.0982C214.663 94.0982 214.427 94.2201 214.279 94.464C214.131 94.7078 214.054 95.0826 214.05 95.5885V96.6002C214.05 97.1379 214.127 97.5356 214.282 97.7931C214.439 98.0483 214.676 98.1759 214.993 98.1759C215.305 98.1759 215.537 98.0551 215.687 97.8136C215.84 97.572 215.919 97.1915 215.926 96.672V95.6363ZM219.447 98.6236H218.811V94.4093L217.536 94.8775V94.3033L219.348 93.6231H219.447V98.6236ZM223.377 98.6236H222.742V94.4093L221.467 94.8775V94.3033L223.278 93.6231H223.377V98.6236ZM227.308 98.6236H226.672V94.4093L225.397 94.8775V94.3033L227.209 93.6231H227.308V98.6236ZM231.239 98.6236H230.603V94.4093L229.328 94.8775V94.3033L231.14 93.6231H231.239V98.6236ZM235.169 98.6236H234.534V94.4093L233.259 94.8775V94.3033L235.07 93.6231H235.169V98.6236ZM239.1 98.6236H238.464V94.4093L237.189 94.8775V94.3033L239.001 93.6231H239.1V98.6236Z" fill="url(#paint1_linear)"/>
<path d="M207.655 117.586H207.019V113.372L205.744 113.84V113.266L207.556 112.586H207.655V117.586ZM211.585 117.586H210.95V113.372L209.675 113.84V113.266L211.486 112.586H211.585V117.586ZM215.516 117.586H214.88V113.372L213.605 113.84V113.266L215.417 112.586H215.516V117.586ZM219.447 117.586H218.811V113.372L217.536 113.84V113.266L219.348 112.586H219.447V117.586ZM224.42 115.464C224.42 116.204 224.293 116.755 224.041 117.115C223.788 117.475 223.392 117.655 222.854 117.655C222.324 117.655 221.931 117.479 221.675 117.128C221.42 116.775 221.288 116.249 221.279 115.549V114.705C221.279 113.974 221.405 113.43 221.658 113.075C221.911 112.719 222.308 112.542 222.848 112.542C223.383 112.542 223.777 112.714 224.03 113.058C224.283 113.399 224.413 113.928 224.42 114.644V115.464ZM223.788 114.599C223.788 114.064 223.712 113.674 223.562 113.43C223.412 113.184 223.174 113.061 222.848 113.061C222.524 113.061 222.288 113.183 222.14 113.427C221.992 113.671 221.916 114.045 221.911 114.551V115.563C221.911 116.101 221.989 116.498 222.144 116.756C222.301 117.011 222.538 117.139 222.854 117.139C223.167 117.139 223.398 117.018 223.548 116.776C223.701 116.535 223.781 116.154 223.788 115.635V114.599ZM227.308 117.586H226.672V113.372L225.397 113.84V113.266L227.209 112.586H227.308V117.586ZM232.281 115.464C232.281 116.204 232.155 116.755 231.902 117.115C231.649 117.475 231.254 117.655 230.716 117.655C230.185 117.655 229.792 117.479 229.537 117.128C229.281 116.775 229.149 116.249 229.14 115.549V114.705C229.14 113.974 229.267 113.43 229.52 113.075C229.772 112.719 230.169 112.542 230.709 112.542C231.244 112.542 231.639 112.714 231.892 113.058C232.145 113.399 232.274 113.928 232.281 114.644V115.464ZM231.649 114.599C231.649 114.064 231.574 113.674 231.423 113.43C231.273 113.184 231.035 113.061 230.709 113.061C230.385 113.061 230.15 113.183 230.001 113.427C229.853 113.671 229.777 114.045 229.772 114.551V115.563C229.772 116.101 229.85 116.498 230.005 116.756C230.162 117.011 230.399 117.139 230.716 117.139C231.028 117.139 231.259 117.018 231.41 116.776C231.562 116.535 231.642 116.154 231.649 115.635V114.599ZM235.169 117.586H234.534V113.372L233.259 113.84V113.266L235.07 112.586H235.169V117.586ZM240.143 115.464C240.143 116.204 240.016 116.755 239.763 117.115C239.51 117.475 239.115 117.655 238.577 117.655C238.046 117.655 237.653 117.479 237.398 117.128C237.143 116.775 237.011 116.249 237.001 115.549V114.705C237.001 113.974 237.128 113.43 237.381 113.075C237.634 112.719 238.03 112.542 238.57 112.542C239.106 112.542 239.5 112.714 239.753 113.058C240.006 113.399 240.136 113.928 240.143 114.644V115.464ZM239.51 114.599C239.51 114.064 239.435 113.674 239.285 113.43C239.134 113.184 238.896 113.061 238.57 113.061C238.247 113.061 238.011 113.183 237.863 113.427C237.715 113.671 237.638 114.045 237.634 114.551V115.563C237.634 116.101 237.711 116.498 237.866 116.756C238.023 117.011 238.26 117.139 238.577 117.139C238.889 117.139 239.121 117.018 239.271 116.776C239.424 116.535 239.503 116.154 239.51 115.635V114.599Z" fill="url(#paint2_linear)"/>
<path d="M208.697 143.908C208.697 144.649 208.571 145.199 208.318 145.559C208.065 145.919 207.67 146.099 207.132 146.099C206.601 146.099 206.208 145.924 205.953 145.573C205.697 145.219 205.565 144.693 205.556 143.993V143.149C205.556 142.418 205.683 141.874 205.936 141.519C206.188 141.163 206.585 140.986 207.125 140.986C207.66 140.986 208.055 141.158 208.308 141.502C208.561 141.844 208.69 142.372 208.697 143.088V143.908ZM208.065 143.043C208.065 142.508 207.99 142.118 207.839 141.874C207.689 141.628 207.451 141.505 207.125 141.505C206.801 141.505 206.566 141.627 206.417 141.871C206.269 142.115 206.193 142.49 206.188 142.995V144.007C206.188 144.545 206.266 144.943 206.421 145.2C206.578 145.455 206.815 145.583 207.132 145.583C207.444 145.583 207.675 145.462 207.826 145.221C207.978 144.979 208.058 144.598 208.065 144.079V143.043ZM212.628 143.908C212.628 144.649 212.501 145.199 212.249 145.559C211.996 145.919 211.6 146.099 211.062 146.099C210.532 146.099 210.139 145.924 209.883 145.573C209.628 145.219 209.496 144.693 209.487 143.993V143.149C209.487 142.418 209.613 141.874 209.866 141.519C210.119 141.163 210.516 140.986 211.056 140.986C211.591 140.986 211.985 141.158 212.238 141.502C212.491 141.844 212.621 142.372 212.628 143.088V143.908ZM211.996 143.043C211.996 142.508 211.92 142.118 211.77 141.874C211.62 141.628 211.382 141.505 211.056 141.505C210.732 141.505 210.496 141.627 210.348 141.871C210.2 142.115 210.124 142.49 210.119 142.995V144.007C210.119 144.545 210.197 144.943 210.352 145.2C210.509 145.455 210.746 145.583 211.062 145.583C211.375 145.583 211.606 145.462 211.756 145.221C211.909 144.979 211.989 144.598 211.996 144.079V143.043ZM215.516 146.031H214.88V141.816L213.605 142.285V141.71L215.417 141.03H215.516V146.031ZM220.489 143.908C220.489 144.649 220.363 145.199 220.11 145.559C219.857 145.919 219.462 146.099 218.924 146.099C218.393 146.099 218 145.924 217.745 145.573C217.489 145.219 217.357 144.693 217.348 143.993V143.149C217.348 142.418 217.475 141.874 217.728 141.519C217.98 141.163 218.377 140.986 218.917 140.986C219.452 140.986 219.847 141.158 220.1 141.502C220.353 141.844 220.482 142.372 220.489 143.088V143.908ZM219.857 143.043C219.857 142.508 219.782 142.118 219.631 141.874C219.481 141.628 219.243 141.505 218.917 141.505C218.593 141.505 218.358 141.627 218.209 141.871C218.061 142.115 217.985 142.49 217.98 142.995V144.007C217.98 144.545 218.058 144.943 218.213 145.2C218.37 145.455 218.607 145.583 218.924 145.583C219.236 145.583 219.467 145.462 219.618 145.221C219.77 144.979 219.85 144.598 219.857 144.079V143.043ZM223.377 146.031H222.742V141.816L221.467 142.285V141.71L223.278 141.03H223.377V146.031ZM228.351 143.908C228.351 144.649 228.224 145.199 227.971 145.559C227.718 145.919 227.323 146.099 226.785 146.099C226.254 146.099 225.861 145.924 225.606 145.573C225.351 145.219 225.219 144.693 225.209 143.993V143.149C225.209 142.418 225.336 141.874 225.589 141.519C225.842 141.163 226.238 140.986 226.778 140.986C227.314 140.986 227.708 141.158 227.961 141.502C228.214 141.844 228.344 142.372 228.351 143.088V143.908ZM227.718 143.043C227.718 142.508 227.643 142.118 227.493 141.874C227.342 141.628 227.104 141.505 226.778 141.505C226.455 141.505 226.219 141.627 226.071 141.871C225.923 142.115 225.846 142.49 225.842 142.995V144.007C225.842 144.545 225.919 144.943 226.074 145.2C226.231 145.455 226.468 145.583 226.785 145.583C227.097 145.583 227.329 145.462 227.479 145.221C227.632 144.979 227.711 144.598 227.718 144.079V143.043ZM231.239 146.031H230.603V141.816L229.328 142.285V141.71L231.14 141.03H231.239V146.031ZM235.169 146.031H234.534V141.816L233.259 142.285V141.71L235.07 141.03H235.169V146.031ZM240.143 143.908C240.143 144.649 240.016 145.199 239.763 145.559C239.51 145.919 239.115 146.099 238.577 146.099C238.046 146.099 237.653 145.924 237.398 145.573C237.143 145.219 237.011 144.693 237.001 143.993V143.149C237.001 142.418 237.128 141.874 237.381 141.519C237.634 141.163 238.03 140.986 238.57 140.986C239.106 140.986 239.5 141.158 239.753 141.502C240.006 141.844 240.136 142.372 240.143 143.088V143.908ZM239.51 143.043C239.51 142.508 239.435 142.118 239.285 141.874C239.134 141.628 238.896 141.505 238.57 141.505C238.247 141.505 238.011 141.627 237.863 141.871C237.715 142.115 237.638 142.49 237.634 142.995V144.007C237.634 144.545 237.711 144.943 237.866 145.2C238.023 145.455 238.26 145.583 238.577 145.583C238.889 145.583 239.121 145.462 239.271 145.221C239.424 144.979 239.503 144.598 239.51 144.079V143.043Z" fill="url(#paint3_linear)"/>
<path d="M207.655 136.549H207.019V132.335L205.744 132.803V132.229L207.556 131.549H207.655V136.549ZM211.585 136.549H210.95V132.335L209.675 132.803V132.229L211.486 131.549H211.585V136.549ZM216.559 134.427C216.559 135.167 216.432 135.718 216.179 136.078C215.926 136.438 215.531 136.618 214.993 136.618C214.462 136.618 214.069 136.442 213.814 136.091C213.559 135.738 213.427 135.212 213.417 134.512V133.668C213.417 132.936 213.544 132.393 213.797 132.038C214.05 131.682 214.446 131.504 214.986 131.504C215.522 131.504 215.916 131.676 216.169 132.02C216.422 132.362 216.552 132.891 216.559 133.606V134.427ZM215.926 133.562C215.926 133.026 215.851 132.637 215.701 132.393C215.55 132.147 215.312 132.024 214.986 132.024C214.663 132.024 214.427 132.146 214.279 132.39C214.131 132.633 214.054 133.008 214.05 133.514V134.526C214.05 135.064 214.127 135.461 214.282 135.719C214.439 135.974 214.676 136.101 214.993 136.101C215.305 136.101 215.537 135.981 215.687 135.739C215.84 135.498 215.919 135.117 215.926 134.598V133.562ZM219.447 136.549H218.811V132.335L217.536 132.803V132.229L219.348 131.549H219.447V136.549ZM223.377 136.549H222.742V132.335L221.467 132.803V132.229L223.278 131.549H223.377V136.549ZM228.351 134.427C228.351 135.167 228.224 135.718 227.971 136.078C227.718 136.438 227.323 136.618 226.785 136.618C226.254 136.618 225.861 136.442 225.606 136.091C225.351 135.738 225.219 135.212 225.209 134.512V133.668C225.209 132.936 225.336 132.393 225.589 132.038C225.842 131.682 226.238 131.504 226.778 131.504C227.314 131.504 227.708 131.676 227.961 132.02C228.214 132.362 228.344 132.891 228.351 133.606V134.427ZM227.718 133.562C227.718 133.026 227.643 132.637 227.493 132.393C227.342 132.147 227.104 132.024 226.778 132.024C226.455 132.024 226.219 132.146 226.071 132.39C225.923 132.633 225.846 133.008 225.842 133.514V134.526C225.842 135.064 225.919 135.461 226.074 135.719C226.231 135.974 226.468 136.101 226.785 136.101C227.097 136.101 227.329 135.981 227.479 135.739C227.632 135.498 227.711 135.117 227.718 134.598V133.562ZM232.281 134.427C232.281 135.167 232.155 135.718 231.902 136.078C231.649 136.438 231.254 136.618 230.716 136.618C230.185 136.618 229.792 136.442 229.537 136.091C229.281 135.738 229.149 135.212 229.14 134.512V133.668C229.14 132.936 229.267 132.393 229.52 132.038C229.772 131.682 230.169 131.504 230.709 131.504C231.244 131.504 231.639 131.676 231.892 132.02C232.145 132.362 232.274 132.891 232.281 133.606V134.427ZM231.649 133.562C231.649 133.026 231.574 132.637 231.423 132.393C231.273 132.147 231.035 132.024 230.709 132.024C230.385 132.024 230.15 132.146 230.001 132.39C229.853 132.633 229.777 133.008 229.772 133.514V134.526C229.772 135.064 229.85 135.461 230.005 135.719C230.162 135.974 230.399 136.101 230.716 136.101C231.028 136.101 231.259 135.981 231.41 135.739C231.562 135.498 231.642 135.117 231.649 134.598V133.562ZM235.169 136.549H234.534V132.335L233.259 132.803V132.229L235.07 131.549H235.169V136.549ZM240.143 134.427C240.143 135.167 240.016 135.718 239.763 136.078C239.51 136.438 239.115 136.618 238.577 136.618C238.046 136.618 237.653 136.442 237.398 136.091C237.143 135.738 237.011 135.212 237.001 134.512V133.668C237.001 132.936 237.128 132.393 237.381 132.038C237.634 131.682 238.03 131.504 238.57 131.504C239.106 131.504 239.5 131.676 239.753 132.02C240.006 132.362 240.136 132.891 240.143 133.606V134.427ZM239.51 133.562C239.51 133.026 239.435 132.637 239.285 132.393C239.134 132.147 238.896 132.024 238.57 132.024C238.247 132.024 238.011 132.146 237.863 132.39C237.715 132.633 237.638 133.008 237.634 133.514V134.526C237.634 135.064 237.711 135.461 237.866 135.719C238.023 135.974 238.26 136.101 238.577 136.101C238.889 136.101 239.121 135.981 239.271 135.739C239.424 135.498 239.503 135.117 239.51 134.598V133.562Z" fill="url(#paint4_linear)"/>
<path d="M208.697 124.945C208.697 125.686 208.571 126.236 208.318 126.596C208.065 126.956 207.67 127.136 207.132 127.136C206.601 127.136 206.208 126.961 205.953 126.61C205.697 126.257 205.565 125.73 205.556 125.031V124.186C205.556 123.455 205.683 122.912 205.936 122.556C206.188 122.201 206.585 122.023 207.125 122.023C207.66 122.023 208.055 122.195 208.308 122.539C208.561 122.881 208.69 123.409 208.697 124.125V124.945ZM208.065 124.081C208.065 123.545 207.99 123.155 207.839 122.912C207.689 122.665 207.451 122.542 207.125 122.542C206.801 122.542 206.566 122.664 206.417 122.908C206.269 123.152 206.193 123.527 206.188 124.033V125.044C206.188 125.582 206.266 125.98 206.421 126.237C206.578 126.492 206.815 126.62 207.132 126.62C207.444 126.62 207.675 126.499 207.826 126.258C207.978 126.016 208.058 125.636 208.065 125.116V124.081ZM211.585 127.068H210.95V122.853L209.675 123.322V122.747L211.486 122.067H211.585V127.068ZM216.559 124.945C216.559 125.686 216.432 126.236 216.179 126.596C215.926 126.956 215.531 127.136 214.993 127.136C214.462 127.136 214.069 126.961 213.814 126.61C213.559 126.257 213.427 125.73 213.417 125.031V124.186C213.417 123.455 213.544 122.912 213.797 122.556C214.05 122.201 214.446 122.023 214.986 122.023C215.522 122.023 215.916 122.195 216.169 122.539C216.422 122.881 216.552 123.409 216.559 124.125V124.945ZM215.926 124.081C215.926 123.545 215.851 123.155 215.701 122.912C215.55 122.665 215.312 122.542 214.986 122.542C214.663 122.542 214.427 122.664 214.279 122.908C214.131 123.152 214.054 123.527 214.05 124.033V125.044C214.05 125.582 214.127 125.98 214.282 126.237C214.439 126.492 214.676 126.62 214.993 126.62C215.305 126.62 215.537 126.499 215.687 126.258C215.84 126.016 215.919 125.636 215.926 125.116V124.081ZM219.447 127.068H218.811V122.853L217.536 123.322V122.747L219.348 122.067H219.447V127.068ZM224.42 124.945C224.42 125.686 224.293 126.236 224.041 126.596C223.788 126.956 223.392 127.136 222.854 127.136C222.324 127.136 221.931 126.961 221.675 126.61C221.42 126.257 221.288 125.73 221.279 125.031V124.186C221.279 123.455 221.405 122.912 221.658 122.556C221.911 122.201 222.308 122.023 222.848 122.023C223.383 122.023 223.777 122.195 224.03 122.539C224.283 122.881 224.413 123.409 224.42 124.125V124.945ZM223.788 124.081C223.788 123.545 223.712 123.155 223.562 122.912C223.412 122.665 223.174 122.542 222.848 122.542C222.524 122.542 222.288 122.664 222.14 122.908C221.992 123.152 221.916 123.527 221.911 124.033V125.044C221.911 125.582 221.989 125.98 222.144 126.237C222.301 126.492 222.538 126.62 222.854 126.62C223.167 126.62 223.398 126.499 223.548 126.258C223.701 126.016 223.781 125.636 223.788 125.116V124.081ZM227.308 127.068H226.672V122.853L225.397 123.322V122.747L227.209 122.067H227.308V127.068ZM231.239 127.068H230.603V122.853L229.328 123.322V122.747L231.14 122.067H231.239V127.068ZM235.169 127.068H234.534V122.853L233.259 123.322V122.747L235.07 122.067H235.169V127.068ZM239.1 127.068H238.464V122.853L237.189 123.322V122.747L239.001 122.067H239.1V127.068Z" fill="url(#paint5_linear)"/>
<defs>
<linearGradient id="paint0_linear" x1="224.803" y1="100.105" x2="224.803" y2="109.586" gradientUnits="userSpaceOnUse">
<stop stop-color="#5DB1EB"/>
<stop offset="1" stop-color="#EEF8FF"/>
</linearGradient>
<linearGradient id="paint1_linear" x1="224.803" y1="90.6236" x2="224.803" y2="100.105" gradientUnits="userSpaceOnUse">
<stop stop-color="#5DB1EB"/>
<stop offset="1" stop-color="#EEF8FF"/>
</linearGradient>
<linearGradient id="paint2_linear" x1="224.803" y1="109.586" x2="224.803" y2="119.068" gradientUnits="userSpaceOnUse">
<stop stop-color="#5DB1EB"/>
<stop offset="1" stop-color="#EEF8FF"/>
</linearGradient>
<linearGradient id="paint3_linear" x1="224.803" y1="138.031" x2="224.803" y2="147.512" gradientUnits="userSpaceOnUse">
<stop stop-color="#5DB1EB"/>
<stop offset="1" stop-color="#EEF8FF"/>
</linearGradient>
<linearGradient id="paint4_linear" x1="224.803" y1="128.549" x2="224.803" y2="138.031" gradientUnits="userSpaceOnUse">
<stop stop-color="#5DB1EB"/>
<stop offset="1" stop-color="#EEF8FF"/>
</linearGradient>
<linearGradient id="paint5_linear" x1="224.803" y1="119.068" x2="224.803" y2="128.549" gradientUnits="userSpaceOnUse">
<stop stop-color="#5DB1EB"/>
<stop offset="1" stop-color="#EEF8FF"/>
</linearGradient>
</defs>
</svg>
