<svg width="54" height="22" viewBox="0 0 54 22" fill="none" xmlns="http://www.w3.org/2000/svg">
<path d="M42.914 21.1717C48.4842 21.1717 52.9998 16.6561 52.9998 11.0859C52.9998 5.51559 48.4842 1 42.914 1C37.3437 1 32.8281 5.51559 32.8281 11.0859C32.8281 16.6561 37.3437 21.1717 42.914 21.1717Z" stroke="#8DBBFF" stroke-width="0.5" stroke-miterlimit="10"/>
<path d="M40.7646 21.1717C46.3348 21.1717 50.8504 16.6561 50.8504 11.0859C50.8504 5.51559 46.3348 1 40.7646 1C35.1943 1 30.6787 5.51559 30.6787 11.0859C30.6787 16.6561 35.1943 21.1717 40.7646 21.1717Z" stroke="#8DBBFF" stroke-width="0.5" stroke-miterlimit="10"/>
<path d="M38.6566 21.1717C44.2269 21.1717 48.7425 16.6561 48.7425 11.0859C48.7425 5.51559 44.2269 1 38.6566 1C33.0864 1 28.5708 5.51559 28.5708 11.0859C28.5708 16.6561 33.0864 21.1717 38.6566 21.1717Z" stroke="#8DBBFF" stroke-width="0.5" stroke-miterlimit="10"/>
<path d="M36.5487 21.1717C42.119 21.1717 46.6346 16.6561 46.6346 11.0859C46.6346 5.51559 42.119 1 36.5487 1C30.9785 1 26.4629 5.51559 26.4629 11.0859C26.4629 16.6561 30.9785 21.1717 36.5487 21.1717Z" stroke="#8DBBFF" stroke-width="0.5" stroke-miterlimit="10"/>
<path d="M34.3988 21.1717C39.9691 21.1717 44.4847 16.6561 44.4847 11.0859C44.4847 5.51559 39.9691 1 34.3988 1C28.8286 1 24.313 5.51559 24.313 11.0859C24.313 16.6561 28.8286 21.1717 34.3988 21.1717Z" stroke="#8DBBFF" stroke-width="0.5" stroke-miterlimit="10"/>
<path d="M32.2909 21.1717C37.8612 21.1717 42.3768 16.6561 42.3768 11.0859C42.3768 5.51559 37.8612 1 32.2909 1C26.7207 1 22.2051 5.51559 22.2051 11.0859C22.2051 16.6561 26.7207 21.1717 32.2909 21.1717Z" stroke="#8DBBFF" stroke-width="0.5" stroke-miterlimit="10"/>
<path d="M30.183 21.1717C35.7533 21.1717 40.2689 16.6561 40.2689 11.0859C40.2689 5.51559 35.7533 1 30.183 1C24.6128 1 20.0972 5.51559 20.0972 11.0859C20.0972 16.6561 24.6128 21.1717 30.183 21.1717Z" stroke="#8DBBFF" stroke-width="0.5" stroke-miterlimit="10"/>
<path d="M28.0746 21.1717C33.6449 21.1717 38.1605 16.6561 38.1605 11.0859C38.1605 5.51559 33.6449 1 28.0746 1C22.5044 1 17.9888 5.51559 17.9888 11.0859C17.9888 16.6561 22.5044 21.1717 28.0746 21.1717Z" stroke="#8DBBFF" stroke-width="0.5" stroke-miterlimit="10"/>
<path d="M25.9252 21.1717C31.4955 21.1717 36.0111 16.6561 36.0111 11.0859C36.0111 5.51559 31.4955 1 25.9252 1C20.3549 1 15.8394 5.51559 15.8394 11.0859C15.8394 16.6561 20.3549 21.1717 25.9252 21.1717Z" stroke="#8DBBFF" stroke-width="0.5" stroke-miterlimit="10"/>
<path d="M23.8173 21.1717C29.3876 21.1717 33.9031 16.6561 33.9031 11.0859C33.9031 5.51559 29.3876 1 23.8173 1C18.247 1 13.7314 5.51559 13.7314 11.0859C13.7314 16.6561 18.247 21.1717 23.8173 21.1717Z" stroke="#8DBBFF" stroke-width="0.5" stroke-miterlimit="10"/>
<path d="M21.7089 21.1717C27.2792 21.1717 31.7948 16.6561 31.7948 11.0859C31.7948 5.51559 27.2792 1 21.7089 1C16.1386 1 11.623 5.51559 11.623 11.0859C11.623 16.6561 16.1386 21.1717 21.7089 21.1717Z" stroke="#8DBBFF" stroke-width="0.5" stroke-miterlimit="10"/>
<path d="M19.601 21.1717C25.1713 21.1717 29.6868 16.6561 29.6868 11.0859C29.6868 5.51559 25.1713 1 19.601 1C14.0307 1 9.51514 5.51559 9.51514 11.0859C9.51514 16.6561 14.0307 21.1717 19.601 21.1717Z" stroke="#8DBBFF" stroke-width="0.5" stroke-miterlimit="10"/>
<path d="M17.4516 21.1717C23.0218 21.1717 27.5374 16.6561 27.5374 11.0859C27.5374 5.51559 23.0218 1 17.4516 1C11.8813 1 7.36572 5.51559 7.36572 11.0859C7.36572 16.6561 11.8813 21.1717 17.4516 21.1717Z" stroke="#8DBBFF" stroke-width="0.5" stroke-miterlimit="10"/>
<path d="M15.3432 21.1717C20.9134 21.1717 25.429 16.6561 25.429 11.0859C25.429 5.51559 20.9134 1 15.3432 1C9.77291 1 5.25732 5.51559 5.25732 11.0859C5.25732 16.6561 9.77291 21.1717 15.3432 21.1717Z" stroke="#8DBBFF" stroke-width="0.5" stroke-miterlimit="10"/>
<path d="M13.2353 21.1717C18.8055 21.1717 23.3211 16.6561 23.3211 11.0859C23.3211 5.51559 18.8055 1 13.2353 1C7.665 1 3.14941 5.51559 3.14941 11.0859C3.14941 16.6561 7.665 21.1717 13.2353 21.1717Z" stroke="#8DBBFF" stroke-width="0.5" stroke-miterlimit="10"/>
<path d="M11.0859 21.1717C16.6561 21.1717 21.1717 16.6561 21.1717 11.0859C21.1717 5.51559 16.6561 1 11.0859 1C5.51559 1 1 5.51559 1 11.0859C1 16.6561 5.51559 21.1717 11.0859 21.1717Z" stroke="#8DBBFF" stroke-width="0.5" stroke-miterlimit="10"/>
</svg>
