<svg width="54" height="22" viewBox="0 0 54 22" fill="none" xmlns="http://www.w3.org/2000/svg">
<path d="M42.9142 21.1717C48.4844 21.1717 53 16.6561 53 11.0859C53 5.51559 48.4844 1 42.9142 1C37.3439 1 32.8283 5.51559 32.8283 11.0859C32.8283 16.6561 37.3439 21.1717 42.9142 21.1717Z" stroke="#92D1FD" stroke-width="0.5" stroke-miterlimit="10"/>
<path d="M40.7647 21.1717C46.3349 21.1717 50.8505 16.6561 50.8505 11.0859C50.8505 5.51559 46.3349 1 40.7647 1C35.1944 1 30.6788 5.51559 30.6788 11.0859C30.6788 16.6561 35.1944 21.1717 40.7647 21.1717Z" stroke="#92D1FD" stroke-width="0.5" stroke-miterlimit="10"/>
<path d="M38.6566 21.1717C44.2268 21.1717 48.7424 16.6561 48.7424 11.0859C48.7424 5.51559 44.2268 1 38.6566 1C33.0863 1 28.5707 5.51559 28.5707 11.0859C28.5707 16.6561 33.0863 21.1717 38.6566 21.1717Z" stroke="#92D1FD" stroke-width="0.5" stroke-miterlimit="10"/>
<path d="M36.5485 21.1717C42.1188 21.1717 46.6343 16.6561 46.6343 11.0859C46.6343 5.51559 42.1188 1 36.5485 1C30.9782 1 26.4626 5.51559 26.4626 11.0859C26.4626 16.6561 30.9782 21.1717 36.5485 21.1717Z" stroke="#92D1FD" stroke-width="0.5" stroke-miterlimit="10"/>
<path d="M34.399 21.1717C39.9693 21.1717 44.4849 16.6561 44.4849 11.0859C44.4849 5.51559 39.9693 1 34.399 1C28.8288 1 24.3132 5.51559 24.3132 11.0859C24.3132 16.6561 28.8288 21.1717 34.399 21.1717Z" stroke="#92D1FD" stroke-width="0.5" stroke-miterlimit="10"/>
<path d="M32.2909 21.1717C37.8612 21.1717 42.3768 16.6561 42.3768 11.0859C42.3768 5.51559 37.8612 1 32.2909 1C26.7207 1 22.2051 5.51559 22.2051 11.0859C22.2051 16.6561 26.7207 21.1717 32.2909 21.1717Z" stroke="#92D1FD" stroke-width="0.5" stroke-miterlimit="10"/>
<path d="M30.1828 21.1717C35.7531 21.1717 40.2687 16.6561 40.2687 11.0859C40.2687 5.51559 35.7531 1 30.1828 1C24.6126 1 20.097 5.51559 20.097 11.0859C20.097 16.6561 24.6126 21.1717 30.1828 21.1717Z" stroke="#92D1FD" stroke-width="0.5" stroke-miterlimit="10"/>
<path d="M28.0747 21.1717C33.645 21.1717 38.1606 16.6561 38.1606 11.0859C38.1606 5.51559 33.645 1 28.0747 1C22.5045 1 17.9889 5.51559 17.9889 11.0859C17.9889 16.6561 22.5045 21.1717 28.0747 21.1717Z" stroke="#92D1FD" stroke-width="0.5" stroke-miterlimit="10"/>
<path d="M25.9253 21.1717C31.4955 21.1717 36.0111 16.6561 36.0111 11.0859C36.0111 5.51559 31.4955 1 25.9253 1C20.355 1 15.8394 5.51559 15.8394 11.0859C15.8394 16.6561 20.355 21.1717 25.9253 21.1717Z" stroke="#92D1FD" stroke-width="0.5" stroke-miterlimit="10"/>
<path d="M23.8172 21.1717C29.3874 21.1717 33.903 16.6561 33.903 11.0859C33.903 5.51559 29.3874 1 23.8172 1C18.2469 1 13.7313 5.51559 13.7313 11.0859C13.7313 16.6561 18.2469 21.1717 23.8172 21.1717Z" stroke="#92D1FD" stroke-width="0.5" stroke-miterlimit="10"/>
<path d="M21.709 21.1717C27.2793 21.1717 31.7949 16.6561 31.7949 11.0859C31.7949 5.51559 27.2793 1 21.709 1C16.1388 1 11.6232 5.51559 11.6232 11.0859C11.6232 16.6561 16.1388 21.1717 21.709 21.1717Z" stroke="#92D1FD" stroke-width="0.5" stroke-miterlimit="10"/>
<path d="M19.6009 21.1717C25.1712 21.1717 29.6868 16.6561 29.6868 11.0859C29.6868 5.51559 25.1712 1 19.6009 1C14.0307 1 9.51508 5.51559 9.51508 11.0859C9.51508 16.6561 14.0307 21.1717 19.6009 21.1717Z" stroke="#92D1FD" stroke-width="0.5" stroke-miterlimit="10"/>
<path d="M17.4515 21.1717C23.0218 21.1717 27.5374 16.6561 27.5374 11.0859C27.5374 5.51559 23.0218 1 17.4515 1C11.8812 1 7.36566 5.51559 7.36566 11.0859C7.36566 16.6561 11.8812 21.1717 17.4515 21.1717Z" stroke="#92D1FD" stroke-width="0.5" stroke-miterlimit="10"/>
<path d="M15.3434 21.1717C20.9137 21.1717 25.4293 16.6561 25.4293 11.0859C25.4293 5.51559 20.9137 1 15.3434 1C9.77316 1 5.25757 5.51559 5.25757 11.0859C5.25757 16.6561 9.77316 21.1717 15.3434 21.1717Z" stroke="#92D1FD" stroke-width="0.5" stroke-miterlimit="10"/>
<path d="M13.2353 21.1717C18.8056 21.1717 23.3212 16.6561 23.3212 11.0859C23.3212 5.51559 18.8056 1 13.2353 1C7.66506 1 3.14948 5.51559 3.14948 11.0859C3.14948 16.6561 7.66506 21.1717 13.2353 21.1717Z" stroke="#92D1FD" stroke-width="0.5" stroke-miterlimit="10"/>
<path d="M11.0859 21.1717C16.6561 21.1717 21.1717 16.6561 21.1717 11.0859C21.1717 5.51559 16.6561 1 11.0859 1C5.51559 1 1 5.51559 1 11.0859C1 16.6561 5.51559 21.1717 11.0859 21.1717Z" stroke="#92D1FD" stroke-width="0.5" stroke-miterlimit="10"/>
</svg>
