<svg width="46" height="3" viewBox="0 0 46 3" fill="none" xmlns="http://www.w3.org/2000/svg">
<path d="M1.39012 0.614148C1.37467 0.630804 1.37467 0.647457 1.35923 0.647457C1.34378 0.664113 1.32833 0.664114 1.31289 0.664114C1.29744 0.664114 1.26655 0.647456 1.25111 0.6308C1.22021 0.614144 1.18932 0.597489 1.15843 0.564177C1.12754 0.547521 1.0812 0.51421 1.01942 0.497554C0.973082 0.480898 0.911299 0.46424 0.834071 0.46424C0.772288 0.46424 0.710504 0.480898 0.648721 0.497554C0.602384 0.51421 0.556047 0.547522 0.50971 0.580834C0.478819 0.614146 0.447927 0.664116 0.432481 0.697428C0.417036 0.747396 0.401589 0.797363 0.401589 0.847331C0.401589 0.913956 0.417035 0.980579 0.447927 1.01389C0.478818 1.06386 0.525155 1.09717 0.571492 1.13048C0.617829 1.16379 0.679613 1.1971 0.741396 1.21376C0.803179 1.23042 0.880407 1.26373 0.94219 1.28039C1.00397 1.29704 1.0812 1.33036 1.14299 1.36367C1.20477 1.39698 1.26655 1.43029 1.31289 1.48026C1.35923 1.53023 1.40556 1.58019 1.43646 1.66347C1.46735 1.7301 1.48279 1.81338 1.48279 1.92997C1.48279 2.02991 1.46735 2.1465 1.43646 2.22978C1.40556 2.32971 1.35923 2.41299 1.282 2.47962C1.22021 2.54624 1.14298 2.61287 1.03486 2.64618C0.94219 2.67949 0.83407 2.7128 0.710504 2.7128C0.556047 2.7128 0.432481 2.67949 0.308915 2.62952C0.185349 2.57955 0.0772287 2.49627 0 2.39634L0.0926743 2.22978C0.10812 2.21312 0.108121 2.21312 0.123566 2.19647C0.139012 2.17981 0.154457 2.17981 0.169903 2.17981C0.185349 2.17981 0.21624 2.19646 0.247132 2.21312C0.278023 2.24643 0.308915 2.26309 0.355253 2.2964C0.40159 2.32971 0.447927 2.36302 0.50971 2.37968C0.571493 2.41299 0.648722 2.41299 0.741396 2.41299C0.818625 2.41299 0.880407 2.39634 0.94219 2.37968C1.00397 2.36302 1.05031 2.32972 1.0812 2.27975C1.12754 2.24644 1.15843 2.19646 1.17388 2.12984C1.18932 2.07987 1.20477 2.01325 1.20477 1.94663C1.20477 1.88 1.18932 1.81338 1.15843 1.76341C1.12754 1.71344 1.0812 1.68013 1.03486 1.64682C0.988527 1.61351 0.926745 1.58019 0.864962 1.56354C0.803179 1.54688 0.725951 1.51357 0.664168 1.49691C0.602385 1.48026 0.525155 1.44695 0.463372 1.41363C0.401589 1.38032 0.339807 1.34701 0.293469 1.29704C0.247132 1.24707 0.200794 1.18045 0.169903 1.11383C0.139012 1.0472 0.123566 0.947267 0.123566 0.847331C0.123566 0.764051 0.139012 0.680771 0.169903 0.597491C0.200794 0.514211 0.247132 0.447584 0.308915 0.38096C0.370698 0.314336 0.447927 0.264369 0.525156 0.231057C0.61783 0.197745 0.710505 0.181091 0.834071 0.181091C0.957637 0.181091 1.0812 0.197746 1.18932 0.247714C1.29744 0.297682 1.39012 0.347651 1.46735 0.430931L1.39012 0.614148Z" fill="#8DBBFF"/>
<path d="M3.1046 1.713V2.69571H2.79568V1.713L1.96161 0.230621H2.23963C2.27053 0.230621 2.28597 0.230622 2.30142 0.247278C2.31686 0.263934 2.33231 0.280588 2.34775 0.297244L2.87291 1.26329C2.88836 1.29661 2.91925 1.34657 2.91925 1.37988C2.9347 1.41319 2.95014 1.44651 2.96559 1.47982C2.98103 1.44651 2.99648 1.41319 2.99648 1.37988C3.01192 1.34657 3.02737 1.31326 3.04282 1.26329L3.56797 0.297244C3.58342 0.280588 3.58342 0.263934 3.61431 0.247278C3.62976 0.230622 3.6452 0.230621 3.67609 0.230621H3.95412L3.1046 1.713Z" fill="#8DBBFF"/>
<path d="M5.73039 0.613903C5.71494 0.630559 5.71494 0.647212 5.6995 0.647212C5.68405 0.663868 5.66861 0.663869 5.65316 0.663869C5.63771 0.663869 5.60682 0.647211 5.59138 0.630555C5.56048 0.613899 5.52959 0.597244 5.4987 0.563932C5.46781 0.547276 5.42147 0.513966 5.35969 0.49731C5.31335 0.480654 5.25157 0.463996 5.17434 0.463996C5.11256 0.463996 5.05078 0.480654 4.98899 0.49731C4.94266 0.513966 4.89632 0.547278 4.84998 0.580589C4.81909 0.613901 4.7882 0.663871 4.77275 0.697183C4.75731 0.747151 4.74186 0.797118 4.74186 0.847086C4.74186 0.91371 4.75731 0.980334 4.7882 1.01365C4.81909 1.06361 4.86543 1.09692 4.91176 1.13023C4.9581 1.16355 5.01988 1.19686 5.08167 1.21351C5.14345 1.23017 5.22068 1.26349 5.28246 1.28014C5.34424 1.2968 5.42147 1.33011 5.48326 1.36342C5.54504 1.39673 5.60682 1.43004 5.65316 1.48001C5.6995 1.52998 5.74583 1.57995 5.77673 1.66323C5.80762 1.72985 5.82306 1.81313 5.82306 1.92972C5.82306 2.02966 5.80762 2.14625 5.77673 2.22953C5.74583 2.32947 5.6995 2.41275 5.62227 2.47937C5.56049 2.54599 5.48326 2.61262 5.37514 2.64593C5.28246 2.67924 5.17434 2.71255 5.05078 2.71255C4.89632 2.71255 4.77275 2.67924 4.64919 2.62927C4.52562 2.5793 4.4175 2.49603 4.34027 2.39609L4.43295 2.22953C4.44839 2.21287 4.44839 2.21288 4.46384 2.19622C4.47928 2.17956 4.49473 2.17956 4.51017 2.17956C4.52562 2.17956 4.55651 2.19622 4.5874 2.21287C4.61829 2.24618 4.64919 2.26284 4.69552 2.29615C4.74186 2.32946 4.7882 2.36278 4.84998 2.37943C4.91176 2.41274 4.98899 2.41275 5.08167 2.41275C5.1589 2.41275 5.22068 2.39609 5.28246 2.37943C5.34424 2.36278 5.39058 2.32947 5.42147 2.2795C5.46781 2.24619 5.4987 2.19622 5.51415 2.12959C5.52959 2.07962 5.54504 2.01301 5.54504 1.94638C5.54504 1.87976 5.52959 1.81313 5.4987 1.76316C5.46781 1.7132 5.42147 1.67988 5.37514 1.64657C5.3288 1.61326 5.26702 1.57995 5.20523 1.56329C5.14345 1.54663 5.06622 1.51332 5.00444 1.49667C4.94266 1.48001 4.86543 1.4467 4.80364 1.41339C4.74186 1.38008 4.68008 1.34676 4.63374 1.29679C4.5874 1.24683 4.54107 1.18021 4.51017 1.11358C4.47928 1.04696 4.46384 0.947022 4.46384 0.847086C4.46384 0.763806 4.47928 0.680526 4.51017 0.597246C4.54107 0.513967 4.5874 0.44734 4.64919 0.380716C4.71097 0.314092 4.7882 0.264125 4.86543 0.230813C4.9581 0.197501 5.05078 0.180847 5.17434 0.180847C5.29791 0.180847 5.42147 0.197502 5.52959 0.24747C5.63771 0.297438 5.73039 0.347407 5.80762 0.430687L5.73039 0.613903Z" fill="#8DBBFF"/>
<path d="M8.12447 0.230621V0.513775H7.38307V2.69571H7.07416V0.513775H6.33276V0.230621H8.12447Z" fill="#8DBBFF"/>
<path d="M10.1788 0.230621V0.497118H9.08211V1.31326H9.97796V1.57976H9.08211V2.42921H10.1788V2.69571H8.77319V0.230621H10.1788Z" fill="#8DBBFF"/>
<path d="M12.1094 1.89622C12.1249 1.92953 12.1249 1.96284 12.1403 1.99616C12.1558 1.96284 12.1558 1.92953 12.1712 1.89622C12.1867 1.86291 12.2021 1.82959 12.2175 1.81294L12.9898 0.297244C13.0053 0.263932 13.0207 0.247278 13.0362 0.247278C13.0516 0.247278 13.0671 0.230621 13.0979 0.230621H13.3296V2.69571H13.0516V0.880203C13.0516 0.863547 13.0516 0.830235 13.0516 0.796923C13.0516 0.763611 13.0516 0.746955 13.0516 0.713643L12.2639 2.26265C12.233 2.31262 12.2021 2.34593 12.1558 2.34593H12.1249C12.0785 2.34593 12.0322 2.31262 12.0167 2.26265L11.2136 0.713643C11.2136 0.746955 11.2136 0.780267 11.2136 0.796923C11.2136 0.830235 11.2136 0.846891 11.2136 0.880203V2.69571H10.9355V0.230621H11.1672C11.1981 0.230621 11.2136 0.230622 11.229 0.247278C11.2445 0.247278 11.2599 0.263932 11.2754 0.297244L12.0631 1.81294C12.0785 1.82959 12.094 1.86291 12.1094 1.89622Z" fill="#8DBBFF"/>
<path d="M16.3108 0.613903C16.2953 0.630559 16.2953 0.647212 16.2799 0.647212C16.2644 0.647212 16.249 0.663869 16.2335 0.663869C16.2181 0.663869 16.1872 0.647211 16.1718 0.630555C16.1409 0.613899 16.11 0.597244 16.0791 0.563932C16.0482 0.547276 16.0019 0.513966 15.9401 0.49731C15.8937 0.480654 15.832 0.463996 15.7547 0.463996C15.6929 0.463996 15.6312 0.480654 15.5694 0.49731C15.523 0.513966 15.4767 0.547278 15.4304 0.580589C15.3995 0.613901 15.3686 0.663871 15.3531 0.697183C15.3377 0.747151 15.3222 0.797118 15.3222 0.847086C15.3222 0.91371 15.3377 0.980334 15.3686 1.01365C15.3995 1.06361 15.4458 1.09692 15.4921 1.13023C15.5385 1.16355 15.6003 1.19686 15.662 1.21351C15.7238 1.23017 15.8011 1.26349 15.8628 1.28014C15.9246 1.2968 16.0019 1.33011 16.0636 1.36342C16.1254 1.39673 16.1872 1.43004 16.2335 1.48001C16.2799 1.52998 16.3262 1.57995 16.3571 1.66323C16.388 1.72985 16.4034 1.81313 16.4034 1.92972C16.4034 2.02966 16.388 2.14625 16.3571 2.22953C16.3262 2.32947 16.2799 2.41275 16.2027 2.47937C16.1409 2.54599 16.0636 2.61262 15.9555 2.64593C15.8628 2.67924 15.7547 2.71255 15.6312 2.71255C15.4767 2.71255 15.3531 2.67924 15.2296 2.62927C15.106 2.5793 14.9979 2.49603 14.9207 2.39609L15.0133 2.22953C15.0288 2.21287 15.0288 2.21288 15.0442 2.19622C15.0597 2.17956 15.0751 2.17956 15.0906 2.17956C15.106 2.17956 15.1369 2.19622 15.1678 2.21287C15.1987 2.24618 15.2296 2.26284 15.2759 2.29615C15.3222 2.32946 15.3686 2.36278 15.4304 2.37943C15.4921 2.41274 15.5694 2.41275 15.662 2.41275C15.7393 2.41275 15.8011 2.39609 15.8628 2.37943C15.9246 2.36278 15.971 2.32947 16.0019 2.2795C16.0482 2.24619 16.0791 2.19622 16.0945 2.12959C16.11 2.07962 16.1254 2.01301 16.1254 1.94638C16.1254 1.87976 16.11 1.81313 16.0791 1.76316C16.0482 1.7132 16.0019 1.67988 15.9555 1.64657C15.9092 1.61326 15.8474 1.57995 15.7856 1.56329C15.7238 1.54663 15.6466 1.51332 15.5848 1.49667C15.523 1.48001 15.4458 1.4467 15.384 1.41339C15.3222 1.38008 15.2605 1.34676 15.2141 1.29679C15.1678 1.24683 15.1214 1.18021 15.0906 1.11358C15.0597 1.04696 15.0442 0.947022 15.0442 0.847086C15.0442 0.763806 15.0597 0.680526 15.0906 0.597246C15.1214 0.513967 15.1678 0.44734 15.2296 0.380716C15.2914 0.314092 15.3686 0.264125 15.4458 0.230813C15.5385 0.197501 15.6312 0.180847 15.7547 0.180847C15.8783 0.180847 16.0019 0.197502 16.11 0.24747C16.2181 0.297438 16.3108 0.347407 16.388 0.430687L16.3108 0.613903Z" fill="#8DBBFF"/>
<path d="M19.2763 1.46336C19.2763 1.64657 19.2454 1.81313 19.199 1.97969C19.1372 2.1296 19.0755 2.26284 18.9673 2.37944C18.8747 2.49603 18.7511 2.57931 18.6121 2.64593C18.4731 2.71256 18.3186 2.74587 18.1487 2.74587C17.9788 2.74587 17.8244 2.71256 17.6853 2.64593C17.5463 2.57931 17.4228 2.49603 17.3301 2.37944C17.2374 2.26284 17.1602 2.1296 17.0984 1.97969C17.0521 1.82979 17.0212 1.66323 17.0212 1.46336C17.0212 1.28014 17.0521 1.11358 17.0984 0.947024C17.1602 0.79712 17.222 0.663868 17.3301 0.547276C17.4228 0.430684 17.5463 0.347408 17.6853 0.280784C17.8244 0.21416 17.9788 0.180847 18.1487 0.180847C18.3186 0.180847 18.4731 0.21416 18.6121 0.280784C18.7511 0.347408 18.8747 0.430684 18.9673 0.547276C19.06 0.663868 19.1372 0.79712 19.199 0.947024C19.2454 1.11358 19.2763 1.28014 19.2763 1.46336ZM18.9519 1.46336C18.9519 1.31345 18.9364 1.18021 18.8901 1.06361C18.8592 0.947021 18.7974 0.847087 18.7202 0.763807C18.643 0.680527 18.5658 0.613901 18.4576 0.563933C18.365 0.513965 18.2414 0.49731 18.1178 0.49731C17.9943 0.49731 17.8861 0.513965 17.778 0.563933C17.6853 0.613901 17.5927 0.680527 17.5154 0.763807C17.4382 0.847087 17.3919 0.947021 17.3455 1.06361C17.3146 1.18021 17.2838 1.31345 17.2838 1.46336C17.2838 1.61326 17.2992 1.74651 17.3455 1.8631C17.3764 1.9797 17.4382 2.07963 17.5154 2.16291C17.5927 2.24619 17.6699 2.31282 17.778 2.34613C17.8707 2.3961 17.9943 2.41275 18.1178 2.41275C18.2414 2.41275 18.3495 2.3961 18.4576 2.34613C18.5503 2.29616 18.643 2.24619 18.7202 2.16291C18.7974 2.07963 18.8438 1.9797 18.8901 1.8631C18.9364 1.76317 18.9519 1.61326 18.9519 1.46336Z" fill="#8DBBFF"/>
<path d="M20.3266 2.41255H21.3151V2.69571H20.0177V0.230621H20.3266V2.41255Z" fill="#8DBBFF"/>
<path d="M22.875 2.42922C22.9677 2.42922 23.0604 2.41256 23.1222 2.37924C23.1994 2.34593 23.2612 2.29597 23.3075 2.22934C23.3539 2.16272 23.4002 2.0961 23.4311 2.01282C23.462 1.92954 23.4774 1.8296 23.4774 1.72966V0.230621H23.7863V1.72966C23.7863 1.87957 23.7709 1.99616 23.7246 2.1294C23.6782 2.26265 23.6164 2.36259 23.5392 2.44587C23.462 2.52915 23.3693 2.61243 23.2457 2.6624C23.1376 2.71237 22.9986 2.74568 22.8596 2.74568C22.7206 2.74568 22.597 2.71237 22.4735 2.6624C22.3653 2.61243 22.2727 2.54581 22.18 2.44587C22.1028 2.36259 22.041 2.246 21.9946 2.1294C21.9483 2.01281 21.9329 1.87957 21.9329 1.72966V0.230621H22.2418V1.72966C22.2418 1.8296 22.2572 1.92954 22.2881 2.01282C22.319 2.0961 22.3499 2.17937 22.4117 2.22934C22.458 2.29597 22.5198 2.34593 22.597 2.37924C22.6897 2.41256 22.7669 2.42922 22.875 2.42922Z" fill="#8DBBFF"/>
<path d="M26.1806 0.230621V0.513775H25.4392V2.69571H25.1302V0.513775H24.3889V0.230621H26.1806Z" fill="#8DBBFF"/>
<path d="M27.2 2.69571H26.8911V0.230621H27.2V2.69571Z" fill="#8DBBFF"/>
<path d="M30.2582 1.46336C30.2582 1.64657 30.2274 1.81313 30.181 1.97969C30.1192 2.1296 30.0575 2.26284 29.9493 2.37944C29.8567 2.49603 29.7331 2.57931 29.5941 2.64593C29.4551 2.71256 29.3006 2.74587 29.1307 2.74587C28.9608 2.74587 28.8064 2.71256 28.6673 2.64593C28.5283 2.57931 28.4048 2.49603 28.3121 2.37944C28.2194 2.26284 28.1422 2.1296 28.0804 1.97969C28.0341 1.82979 28.0032 1.66323 28.0032 1.46336C28.0032 1.28014 28.0341 1.11358 28.0804 0.947024C28.1422 0.79712 28.204 0.663868 28.3121 0.547276C28.4048 0.430684 28.5283 0.347408 28.6673 0.280784C28.8064 0.21416 28.9608 0.180847 29.1307 0.180847C29.3006 0.180847 29.4551 0.21416 29.5941 0.280784C29.7331 0.347408 29.8567 0.430684 29.9493 0.547276C30.042 0.663868 30.1192 0.79712 30.181 0.947024C30.2274 1.11358 30.2582 1.28014 30.2582 1.46336ZM29.9339 1.46336C29.9339 1.31345 29.9184 1.18021 29.8721 1.06361C29.8412 0.947021 29.7794 0.847087 29.7022 0.763807C29.625 0.680527 29.5477 0.613901 29.4396 0.563933C29.347 0.513965 29.2234 0.49731 29.0998 0.49731C28.9763 0.49731 28.8681 0.513965 28.76 0.563933C28.6673 0.613901 28.5747 0.680527 28.4974 0.763807C28.4202 0.847087 28.3739 0.947021 28.3275 1.06361C28.2966 1.18021 28.2658 1.31345 28.2658 1.46336C28.2658 1.61326 28.2812 1.74651 28.3275 1.8631C28.3584 1.9797 28.4202 2.07963 28.4974 2.16291C28.5747 2.24619 28.6519 2.31282 28.76 2.34613C28.8527 2.3961 28.9763 2.41275 29.0998 2.41275C29.2234 2.41275 29.3315 2.3961 29.4396 2.34613C29.5323 2.29616 29.625 2.24619 29.7022 2.16291C29.7794 2.07963 29.8258 1.9797 29.8721 1.8631C29.9184 1.76317 29.9339 1.61326 29.9339 1.46336Z" fill="#8DBBFF"/>
<path d="M31.2158 0.247325C31.2313 0.247325 31.2467 0.263979 31.2621 0.297291L32.5905 2.16277C32.5905 2.12945 32.5905 2.09614 32.5905 2.07949C32.5905 2.04617 32.5905 2.02952 32.5905 1.99621V0.247325H32.8685V2.71241H32.714C32.6832 2.71241 32.6677 2.71242 32.6523 2.69576C32.6368 2.6791 32.6214 2.6791 32.6059 2.64579L31.2776 0.780319C31.2776 0.813631 31.2776 0.830287 31.2776 0.863599C31.2776 0.896911 31.2776 0.913567 31.2776 0.946879V2.71241H30.9996V0.247325H31.154C31.1849 0.230669 31.2158 0.230669 31.2158 0.247325Z" fill="#8DBBFF"/>
<path d="M34.9073 0.613903C34.8919 0.630559 34.8919 0.647212 34.8764 0.647212C34.861 0.647212 34.8455 0.663869 34.8301 0.663869C34.8147 0.663869 34.7838 0.647211 34.7683 0.630555C34.7374 0.613899 34.7065 0.597244 34.6756 0.563932C34.6448 0.547276 34.5984 0.513966 34.5366 0.49731C34.4903 0.480654 34.4285 0.463996 34.3513 0.463996C34.2895 0.463996 34.2277 0.480654 34.1659 0.49731C34.1196 0.513966 34.0733 0.547278 34.0269 0.580589C33.996 0.613901 33.9651 0.663871 33.9497 0.697183C33.9342 0.747151 33.9188 0.797118 33.9188 0.847086C33.9188 0.91371 33.9342 0.980334 33.9651 1.01365C33.996 1.06361 34.0424 1.09692 34.0887 1.13023C34.135 1.16355 34.1968 1.19686 34.2586 1.21351C34.3204 1.23017 34.3976 1.26349 34.4594 1.28014C34.5212 1.2968 34.5984 1.33011 34.6602 1.36342C34.722 1.39673 34.7838 1.43004 34.8301 1.48001C34.8764 1.52998 34.9228 1.57995 34.9537 1.66323C34.9846 1.72985 35 1.81313 35 1.92972C35 2.02966 34.9846 2.14625 34.9537 2.22953C34.9228 2.32947 34.8764 2.41275 34.7992 2.47937C34.7374 2.54599 34.6602 2.61262 34.5521 2.64593C34.4594 2.67924 34.3513 2.71255 34.2277 2.71255C34.0733 2.71255 33.9497 2.67924 33.8261 2.62927C33.7026 2.5793 33.5944 2.49603 33.5172 2.39609L33.6099 2.22953C33.6253 2.21287 33.6253 2.21288 33.6408 2.19622C33.6562 2.17956 33.6717 2.17956 33.6871 2.17956C33.7026 2.17956 33.7335 2.19622 33.7643 2.21287C33.7952 2.24618 33.8261 2.26284 33.8725 2.29615C33.9188 2.32946 33.9651 2.36278 34.0269 2.37943C34.0887 2.41274 34.1659 2.41275 34.2586 2.41275C34.3358 2.41275 34.3976 2.39609 34.4594 2.37943C34.5212 2.36278 34.5675 2.32947 34.5984 2.2795C34.6448 2.24619 34.6756 2.19622 34.6911 2.12959C34.7065 2.07962 34.722 2.01301 34.722 1.94638C34.722 1.87976 34.7065 1.81313 34.6756 1.76316C34.6448 1.7132 34.5984 1.67988 34.5521 1.64657C34.5057 1.61326 34.444 1.57995 34.3822 1.56329C34.3204 1.54663 34.2432 1.51332 34.1814 1.49667C34.1196 1.48001 34.0424 1.4467 33.9806 1.41339C33.9188 1.38008 33.857 1.34676 33.8107 1.29679C33.7643 1.24683 33.718 1.18021 33.6871 1.11358C33.6562 1.04696 33.6408 0.947022 33.6408 0.847086C33.6408 0.763806 33.6562 0.680526 33.6871 0.597246C33.718 0.513967 33.7643 0.44734 33.8261 0.380716C33.8879 0.314092 33.9651 0.264125 34.0424 0.230813C34.135 0.197501 34.2277 0.180847 34.3513 0.180847C34.4748 0.180847 34.5984 0.197502 34.7065 0.24747C34.8147 0.297438 34.9073 0.347407 34.9846 0.430687L34.9073 0.613903Z" fill="#8DBBFF"/>
<path d="M38.4399 2.21776C38.4568 2.21776 38.4717 2.22535 38.4844 2.24051L38.6069 2.38576C38.5136 2.50476 38.4001 2.59751 38.2665 2.66401C38.134 2.73051 37.9734 2.76376 37.7846 2.76376C37.6214 2.76376 37.4729 2.73285 37.3393 2.67101C37.2057 2.60801 37.0918 2.52051 36.9974 2.40851C36.903 2.29535 36.8299 2.16001 36.7779 2.00251C36.726 1.84501 36.7 1.67176 36.7 1.48276C36.7 1.29376 36.727 1.12051 36.7811 0.963012C36.8352 0.805512 36.911 0.670179 37.0085 0.557012C37.1071 0.443846 37.2248 0.356346 37.3616 0.294512C37.4984 0.231512 37.6495 0.200012 37.8149 0.200012C37.9771 0.200012 38.1202 0.228596 38.2443 0.285762C38.3683 0.342929 38.4775 0.420512 38.5719 0.518512L38.4701 0.674262C38.4637 0.685929 38.4552 0.695846 38.4446 0.704012C38.4351 0.711012 38.4219 0.714512 38.4049 0.714512C38.3858 0.714512 38.3625 0.703429 38.3349 0.681262C38.3073 0.657929 38.2713 0.632262 38.2268 0.604262C38.1822 0.576262 38.1266 0.551179 38.0598 0.529012C37.993 0.505679 37.9108 0.494012 37.8133 0.494012C37.6956 0.494012 37.588 0.516762 37.4904 0.562262C37.3929 0.606596 37.3086 0.671346 37.2376 0.756512C37.1676 0.841679 37.113 0.945512 37.0737 1.06801C37.0345 1.19051 37.0149 1.32876 37.0149 1.48276C37.0149 1.6391 37.0351 1.77851 37.0753 1.90101C37.1167 2.02351 37.1724 2.12735 37.2423 2.21251C37.3134 2.29651 37.3966 2.36068 37.492 2.40501C37.5885 2.44935 37.6924 2.47151 37.8037 2.47151C37.8716 2.47151 37.9325 2.46743 37.9866 2.45926C38.0418 2.44993 38.0921 2.43593 38.1377 2.41726C38.1844 2.3986 38.2273 2.37526 38.2665 2.34726C38.3068 2.3181 38.3466 2.28368 38.3858 2.24401C38.4038 2.22651 38.4219 2.21776 38.4399 2.21776Z" fill="#8DBBFF"/>
<path d="M41.2653 1.48276C41.2653 1.6706 41.2383 1.84326 41.1842 2.00076C41.1301 2.1571 41.0538 2.29185 40.9552 2.40501C40.8566 2.51818 40.7378 2.60626 40.599 2.66926C40.4611 2.7311 40.3084 2.76201 40.1409 2.76201C39.9734 2.76201 39.8207 2.7311 39.6829 2.66926C39.5451 2.60626 39.4268 2.51818 39.3282 2.40501C39.2296 2.29185 39.1533 2.1571 39.0992 2.00076C39.0452 1.84326 39.0181 1.6706 39.0181 1.48276C39.0181 1.29493 39.0452 1.12285 39.0992 0.966512C39.1533 0.809012 39.2296 0.673679 39.3282 0.560512C39.4268 0.446179 39.5451 0.357512 39.6829 0.294512C39.8207 0.231512 39.9734 0.200012 40.1409 0.200012C40.3084 0.200012 40.4611 0.231512 40.599 0.294512C40.7378 0.357512 40.8566 0.446179 40.9552 0.560512C41.0538 0.673679 41.1301 0.809012 41.1842 0.966512C41.2383 1.12285 41.2653 1.29493 41.2653 1.48276ZM40.9488 1.48276C40.9488 1.32876 40.9297 1.19051 40.8916 1.06801C40.8534 0.945512 40.7993 0.842262 40.7294 0.758262C40.6594 0.673096 40.5746 0.607762 40.4749 0.562262C40.3752 0.516762 40.2639 0.494012 40.1409 0.494012C40.019 0.494012 39.9082 0.516762 39.8085 0.562262C39.7089 0.607762 39.6235 0.673096 39.5525 0.758262C39.4825 0.842262 39.4284 0.945512 39.3903 1.06801C39.3521 1.19051 39.333 1.32876 39.333 1.48276C39.333 1.63676 39.3521 1.77501 39.3903 1.89751C39.4284 2.01885 39.4825 2.1221 39.5525 2.20726C39.6235 2.29126 39.7089 2.35601 39.8085 2.40151C39.9082 2.44585 40.019 2.46801 40.1409 2.46801C40.2639 2.46801 40.3752 2.44585 40.4749 2.40151C40.5746 2.35601 40.6594 2.29126 40.7294 2.20726C40.7993 2.1221 40.8534 2.01885 40.8916 1.89751C40.9297 1.77501 40.9488 1.63676 40.9488 1.48276Z" fill="#8DBBFF"/>
<path d="M42.5767 1.44251C42.6657 1.44251 42.7442 1.43085 42.8121 1.40751C42.881 1.38301 42.9382 1.34918 42.9838 1.30601C43.0305 1.26168 43.0654 1.20918 43.0888 1.14851C43.1121 1.08785 43.1238 1.02076 43.1238 0.947262C43.1238 0.797929 43.0792 0.685346 42.9902 0.609512C42.9011 0.533679 42.7675 0.495762 42.5894 0.495762H42.2522V1.44251H42.5767ZM43.6295 2.73576H43.356C43.2998 2.73576 43.2584 2.71185 43.2319 2.66401L42.6403 1.76801C42.6223 1.74001 42.6027 1.72018 42.5814 1.70851C42.5613 1.69568 42.5295 1.68926 42.486 1.68926H42.2522V2.73576H41.9453V0.228012H42.5894C42.7336 0.228012 42.8582 0.244346 42.9631 0.277012C43.0681 0.308512 43.1545 0.354596 43.2224 0.415262C43.2913 0.475929 43.3422 0.549429 43.375 0.635762C43.4079 0.720929 43.4243 0.816596 43.4243 0.922762C43.4243 1.01143 43.4116 1.09426 43.3862 1.17126C43.3607 1.24826 43.3236 1.31768 43.2748 1.37951C43.2271 1.44018 43.1683 1.4921 43.0983 1.53526C43.0294 1.57843 42.9509 1.6111 42.8629 1.63326C42.9022 1.65776 42.9361 1.69335 42.9647 1.74001L43.6295 2.73576Z" fill="#8DBBFF"/>
<path d="M44.8508 1.52826C44.9388 1.52826 45.0162 1.51543 45.0829 1.48976C45.1508 1.4641 45.2075 1.42851 45.2531 1.38301C45.2998 1.33635 45.3348 1.28093 45.3581 1.21676C45.3814 1.1526 45.3931 1.08201 45.3931 1.00501C45.3931 0.845179 45.348 0.720346 45.2579 0.630512C45.1688 0.540679 45.0331 0.495762 44.8508 0.495762H44.485V1.52826H44.8508ZM44.8508 0.228012C44.9949 0.228012 45.1201 0.246679 45.2261 0.284012C45.3332 0.320179 45.4217 0.372096 45.4917 0.439762C45.5617 0.507429 45.6136 0.589096 45.6475 0.684762C45.6825 0.780429 45.7 0.887179 45.7 1.00501C45.7 1.12168 45.6815 1.22843 45.6444 1.32526C45.6072 1.4221 45.5526 1.50551 45.4805 1.57551C45.4095 1.64551 45.321 1.70035 45.2149 1.74001C45.11 1.77851 44.9886 1.79776 44.8508 1.79776H44.485V2.73576H44.178V0.228012H44.8508Z" fill="#8DBBFF"/>
</svg>
