<svg width="35" height="3" viewBox="0 0 35 3" fill="none" xmlns="http://www.w3.org/2000/svg">
<path d="M1.39012 0.614148C1.37467 0.630804 1.37467 0.647457 1.35923 0.647457C1.34378 0.664113 1.32833 0.664114 1.31289 0.664114C1.29744 0.664114 1.26655 0.647456 1.25111 0.6308C1.22021 0.614144 1.18932 0.597489 1.15843 0.564177C1.12754 0.547521 1.0812 0.51421 1.01942 0.497554C0.973082 0.480898 0.911299 0.46424 0.834071 0.46424C0.772288 0.46424 0.710504 0.480898 0.648721 0.497554C0.602384 0.51421 0.556047 0.547522 0.50971 0.580834C0.478819 0.614146 0.447927 0.664116 0.432481 0.697428C0.417036 0.747396 0.401589 0.797363 0.401589 0.847331C0.401589 0.913956 0.417035 0.980579 0.447927 1.01389C0.478818 1.06386 0.525155 1.09717 0.571492 1.13048C0.617829 1.16379 0.679613 1.1971 0.741396 1.21376C0.803179 1.23042 0.880407 1.26373 0.94219 1.28039C1.00397 1.29704 1.0812 1.33036 1.14299 1.36367C1.20477 1.39698 1.26655 1.43029 1.31289 1.48026C1.35923 1.53023 1.40556 1.58019 1.43646 1.66347C1.46735 1.7301 1.48279 1.81338 1.48279 1.92997C1.48279 2.02991 1.46735 2.1465 1.43646 2.22978C1.40556 2.32971 1.35923 2.41299 1.282 2.47962C1.22021 2.54624 1.14298 2.61287 1.03486 2.64618C0.94219 2.67949 0.83407 2.7128 0.710504 2.7128C0.556047 2.7128 0.432481 2.67949 0.308915 2.62952C0.185349 2.57955 0.0772287 2.49627 0 2.39634L0.0926743 2.22978C0.10812 2.21312 0.108121 2.21312 0.123566 2.19647C0.139012 2.17981 0.154457 2.17981 0.169903 2.17981C0.185349 2.17981 0.21624 2.19646 0.247132 2.21312C0.278023 2.24643 0.308915 2.26309 0.355253 2.2964C0.40159 2.32971 0.447927 2.36302 0.50971 2.37968C0.571493 2.41299 0.648722 2.41299 0.741396 2.41299C0.818625 2.41299 0.880407 2.39634 0.94219 2.37968C1.00397 2.36302 1.05031 2.32972 1.0812 2.27975C1.12754 2.24644 1.15843 2.19646 1.17388 2.12984C1.18932 2.07987 1.20477 2.01325 1.20477 1.94663C1.20477 1.88 1.18932 1.81338 1.15843 1.76341C1.12754 1.71344 1.0812 1.68013 1.03486 1.64682C0.988527 1.61351 0.926745 1.58019 0.864962 1.56354C0.803179 1.54688 0.725951 1.51357 0.664168 1.49691C0.602385 1.48026 0.525155 1.44695 0.463372 1.41363C0.401589 1.38032 0.339807 1.34701 0.293469 1.29704C0.247132 1.24707 0.200794 1.18045 0.169903 1.11383C0.139012 1.0472 0.123566 0.947267 0.123566 0.847331C0.123566 0.764051 0.139012 0.680771 0.169903 0.597491C0.200794 0.514211 0.247132 0.447584 0.308915 0.38096C0.370698 0.314336 0.447927 0.264369 0.525156 0.231057C0.61783 0.197745 0.710505 0.181091 0.834071 0.181091C0.957637 0.181091 1.0812 0.197746 1.18932 0.247714C1.29744 0.297682 1.39012 0.347651 1.46735 0.430931L1.39012 0.614148Z" fill="#8DBBFF"/>
<path d="M3.10442 1.713V2.69571H2.7955V1.713L1.96143 0.230621H2.23945C2.27034 0.230621 2.28579 0.230622 2.30123 0.247278C2.31668 0.263934 2.33213 0.280588 2.34757 0.297244L2.87273 1.26329C2.88817 1.29661 2.91907 1.34657 2.91907 1.37988C2.93451 1.41319 2.94996 1.44651 2.9654 1.47982C2.98085 1.44651 2.9963 1.41319 2.9963 1.37988C3.01174 1.34657 3.02719 1.31326 3.04263 1.26329L3.56779 0.297244C3.58324 0.280588 3.58324 0.263934 3.61413 0.247278C3.62957 0.230622 3.64502 0.230621 3.67591 0.230621H3.95394L3.10442 1.713Z" fill="#8DBBFF"/>
<path d="M5.73045 0.613903C5.715 0.630559 5.715 0.647212 5.69956 0.647212C5.68411 0.663868 5.66867 0.663869 5.65322 0.663869C5.63777 0.663869 5.60688 0.647211 5.59144 0.630555C5.56055 0.613899 5.52965 0.597244 5.49876 0.563932C5.46787 0.547276 5.42153 0.513966 5.35975 0.49731C5.31341 0.480654 5.25163 0.463996 5.1744 0.463996C5.11262 0.463996 5.05084 0.480654 4.98905 0.49731C4.94272 0.513966 4.89638 0.547278 4.85004 0.580589C4.81915 0.613901 4.78826 0.663871 4.77281 0.697183C4.75737 0.747151 4.74192 0.797118 4.74192 0.847086C4.74192 0.91371 4.75737 0.980334 4.78826 1.01365C4.81915 1.06361 4.86549 1.09692 4.91183 1.13023C4.95816 1.16355 5.01995 1.19686 5.08173 1.21351C5.14351 1.23017 5.22074 1.26349 5.28252 1.28014C5.34431 1.2968 5.42153 1.33011 5.48332 1.36342C5.5451 1.39673 5.60688 1.43004 5.65322 1.48001C5.69956 1.52998 5.7459 1.57995 5.77679 1.66323C5.80768 1.72985 5.82312 1.81313 5.82312 1.92972C5.82312 2.02966 5.80768 2.14625 5.77679 2.22953C5.7459 2.32947 5.69956 2.41275 5.62233 2.47937C5.56055 2.54599 5.48332 2.61262 5.3752 2.64593C5.28252 2.67924 5.1744 2.71255 5.05084 2.71255C4.89638 2.71255 4.77281 2.67924 4.64925 2.62927C4.52568 2.5793 4.41756 2.49603 4.34033 2.39609L4.43301 2.22953C4.44845 2.21287 4.44845 2.21288 4.4639 2.19622C4.47934 2.17956 4.49479 2.17956 4.51024 2.17956C4.52568 2.17956 4.55657 2.19622 4.58746 2.21287C4.61836 2.24618 4.64925 2.26284 4.69558 2.29615C4.74192 2.32946 4.78826 2.36278 4.85004 2.37943C4.91183 2.41274 4.98905 2.41275 5.08173 2.41275C5.15896 2.41275 5.22074 2.39609 5.28252 2.37943C5.34431 2.36278 5.39064 2.32947 5.42153 2.2795C5.46787 2.24619 5.49876 2.19622 5.51421 2.12959C5.52965 2.07962 5.5451 2.01301 5.5451 1.94638C5.5451 1.87976 5.52965 1.81313 5.49876 1.76316C5.46787 1.7132 5.42154 1.67988 5.3752 1.64657C5.32886 1.61326 5.26708 1.57995 5.20529 1.56329C5.14351 1.54663 5.06628 1.51332 5.0045 1.49667C4.94272 1.48001 4.86549 1.4467 4.8037 1.41339C4.74192 1.38008 4.68014 1.34676 4.6338 1.29679C4.58746 1.24683 4.54113 1.18021 4.51024 1.11358C4.47934 1.04696 4.4639 0.947022 4.4639 0.847086C4.4639 0.763806 4.47934 0.680526 4.51024 0.597246C4.54113 0.513967 4.58746 0.44734 4.64925 0.380716C4.71103 0.314092 4.78826 0.264125 4.86549 0.230813C4.95816 0.197501 5.05084 0.180847 5.1744 0.180847C5.29797 0.180847 5.42154 0.197502 5.52966 0.24747C5.63778 0.297438 5.73045 0.347407 5.80768 0.430687L5.73045 0.613903Z" fill="#8DBBFF"/>
<path d="M8.12471 0.230621V0.513775H7.38332V2.69571H7.0744V0.513775H6.33301V0.230621H8.12471Z" fill="#8DBBFF"/>
<path d="M10.1785 0.230621V0.497118H9.08186V1.31326H9.97772V1.57976H9.08186V2.42921H10.1785V2.69571H8.77295V0.230621H10.1785Z" fill="#8DBBFF"/>
<path d="M12.1094 1.89622C12.1249 1.92953 12.1249 1.96284 12.1403 1.99616C12.1558 1.96284 12.1558 1.92953 12.1712 1.89622C12.1867 1.86291 12.2021 1.82959 12.2175 1.81294L12.9898 0.297244C13.0053 0.263932 13.0207 0.247278 13.0362 0.247278C13.0516 0.247278 13.0671 0.230621 13.0979 0.230621H13.3296V2.69571H13.0516V0.880203C13.0516 0.863547 13.0516 0.830235 13.0516 0.796923C13.0516 0.763611 13.0516 0.746955 13.0516 0.713643L12.2639 2.26265C12.233 2.31262 12.2021 2.34593 12.1558 2.34593H12.1249C12.0785 2.34593 12.0322 2.31262 12.0167 2.26265L11.2136 0.713643C11.2136 0.746955 11.2136 0.780267 11.2136 0.796923C11.2136 0.830235 11.2136 0.846891 11.2136 0.880203V2.69571H10.9355V0.230621H11.1672C11.1981 0.230621 11.2136 0.230622 11.229 0.247278C11.2445 0.247278 11.2599 0.263932 11.2754 0.297244L12.0631 1.81294C12.0785 1.82959 12.094 1.86291 12.1094 1.89622Z" fill="#8DBBFF"/>
<path d="M16.3105 0.613903C16.2951 0.630559 16.2951 0.647212 16.2796 0.647212C16.2642 0.647212 16.2487 0.663869 16.2333 0.663869C16.2179 0.663869 16.187 0.647211 16.1715 0.630555C16.1406 0.613899 16.1097 0.597244 16.0788 0.563932C16.048 0.547276 16.0016 0.513966 15.9398 0.49731C15.8935 0.480654 15.8317 0.463996 15.7545 0.463996C15.6927 0.463996 15.6309 0.480654 15.5691 0.49731C15.5228 0.513966 15.4765 0.547278 15.4301 0.580589C15.3992 0.613901 15.3683 0.663871 15.3529 0.697183C15.3374 0.747151 15.322 0.797118 15.322 0.847086C15.322 0.91371 15.3374 0.980334 15.3683 1.01365C15.3992 1.06361 15.4456 1.09692 15.4919 1.13023C15.5382 1.16355 15.6 1.19686 15.6618 1.21351C15.7236 1.23017 15.8008 1.26349 15.8626 1.28014C15.9244 1.2968 16.0016 1.33011 16.0634 1.36342C16.1252 1.39673 16.187 1.43004 16.2333 1.48001C16.2796 1.52998 16.326 1.57995 16.3569 1.66323C16.3878 1.72985 16.4032 1.81313 16.4032 1.92972C16.4032 2.02966 16.3878 2.14625 16.3569 2.22953C16.326 2.32947 16.2796 2.41275 16.2024 2.47937C16.1406 2.54599 16.0634 2.61262 15.9553 2.64593C15.8626 2.67924 15.7545 2.71255 15.6309 2.71255C15.4765 2.71255 15.3529 2.67924 15.2293 2.62927C15.1058 2.5793 14.9976 2.49603 14.9204 2.39609L15.0131 2.22953C15.0285 2.21287 15.0285 2.21288 15.044 2.19622C15.0594 2.17956 15.0749 2.17956 15.0903 2.17956C15.1058 2.17956 15.1366 2.19622 15.1675 2.21287C15.1984 2.24618 15.2293 2.26284 15.2757 2.29615C15.322 2.32946 15.3683 2.36278 15.4301 2.37943C15.4919 2.41274 15.5691 2.41275 15.6618 2.41275C15.739 2.41275 15.8008 2.39609 15.8626 2.37943C15.9244 2.36278 15.9707 2.32947 16.0016 2.2795C16.048 2.24619 16.0788 2.19622 16.0943 2.12959C16.1097 2.07962 16.1252 2.01301 16.1252 1.94638C16.1252 1.87976 16.1097 1.81313 16.0788 1.76316C16.048 1.7132 16.0016 1.67988 15.9553 1.64657C15.9089 1.61326 15.8472 1.57995 15.7854 1.56329C15.7236 1.54663 15.6464 1.51332 15.5846 1.49667C15.5228 1.48001 15.4456 1.4467 15.3838 1.41339C15.322 1.38008 15.2602 1.34676 15.2139 1.29679C15.1675 1.24683 15.1212 1.18021 15.0903 1.11358C15.0594 1.04696 15.044 0.947022 15.044 0.847086C15.044 0.763806 15.0594 0.680526 15.0903 0.597246C15.1212 0.513967 15.1675 0.44734 15.2293 0.380716C15.2911 0.314092 15.3683 0.264125 15.4456 0.230813C15.5382 0.197501 15.6309 0.180847 15.7545 0.180847C15.878 0.180847 16.0016 0.197502 16.1097 0.24747C16.2179 0.297438 16.3105 0.347407 16.3878 0.430687L16.3105 0.613903Z" fill="#8DBBFF"/>
<path d="M19.2761 1.46336C19.2761 1.64657 19.2452 1.81313 19.1988 1.97969C19.1371 2.1296 19.0753 2.26284 18.9672 2.37944C18.8745 2.49603 18.7509 2.57931 18.6119 2.64593C18.4729 2.71256 18.3184 2.74587 18.1485 2.74587C17.9786 2.74587 17.8242 2.71256 17.6852 2.64593C17.5462 2.57931 17.4226 2.49603 17.3299 2.37944C17.2372 2.26284 17.16 2.1296 17.0982 1.97969C17.0519 1.82979 17.021 1.66323 17.021 1.46336C17.021 1.28014 17.0519 1.11358 17.0982 0.947024C17.16 0.79712 17.2218 0.663868 17.3299 0.547276C17.4226 0.430684 17.5462 0.347408 17.6852 0.280784C17.8242 0.21416 17.9786 0.180847 18.1485 0.180847C18.3184 0.180847 18.4729 0.21416 18.6119 0.280784C18.7509 0.347408 18.8745 0.430684 18.9672 0.547276C19.0598 0.663868 19.1371 0.79712 19.1988 0.947024C19.2452 1.11358 19.2761 1.28014 19.2761 1.46336ZM18.9517 1.46336C18.9517 1.31345 18.9363 1.18021 18.8899 1.06361C18.859 0.947021 18.7973 0.847087 18.72 0.763807C18.6428 0.680527 18.5656 0.613901 18.4574 0.563933C18.3648 0.513965 18.2412 0.49731 18.1176 0.49731C17.9941 0.49731 17.886 0.513965 17.7778 0.563933C17.6852 0.613901 17.5925 0.680527 17.5153 0.763807C17.438 0.847087 17.3917 0.947021 17.3454 1.06361C17.3145 1.18021 17.2836 1.31345 17.2836 1.46336C17.2836 1.61326 17.299 1.74651 17.3454 1.8631C17.3762 1.9797 17.438 2.07963 17.5153 2.16291C17.5925 2.24619 17.6697 2.31282 17.7778 2.34613C17.8705 2.3961 17.9941 2.41275 18.1176 2.41275C18.2412 2.41275 18.3493 2.3961 18.4574 2.34613C18.5501 2.29616 18.6428 2.24619 18.72 2.16291C18.7973 2.07963 18.8436 1.9797 18.8899 1.8631C18.9363 1.76317 18.9517 1.61326 18.9517 1.46336Z" fill="#8DBBFF"/>
<path d="M20.3265 2.41255H21.315V2.69571H20.0176V0.230621H20.3265V2.41255Z" fill="#8DBBFF"/>
<path d="M22.8748 2.42922C22.9675 2.42922 23.0602 2.41256 23.1219 2.37924C23.1992 2.34593 23.2609 2.29597 23.3073 2.22934C23.3536 2.16272 23.4 2.0961 23.4308 2.01282C23.4617 1.92954 23.4772 1.8296 23.4772 1.72966V0.230621H23.7861V1.72966C23.7861 1.87957 23.7707 1.99616 23.7243 2.1294C23.678 2.26265 23.6162 2.36259 23.539 2.44587C23.4617 2.52915 23.3691 2.61243 23.2455 2.6624C23.1374 2.71237 22.9984 2.74568 22.8594 2.74568C22.7203 2.74568 22.5968 2.71237 22.4732 2.6624C22.3651 2.61243 22.2724 2.54581 22.1797 2.44587C22.1025 2.36259 22.0407 2.246 21.9944 2.1294C21.9481 2.01281 21.9326 1.87957 21.9326 1.72966V0.230621H22.2415V1.72966C22.2415 1.8296 22.257 1.92954 22.2879 2.01282C22.3188 2.0961 22.3497 2.17937 22.4114 2.22934C22.4578 2.29597 22.5196 2.34593 22.5968 2.37924C22.6895 2.41256 22.7667 2.42922 22.8748 2.42922Z" fill="#8DBBFF"/>
<path d="M26.1804 0.230621V0.513775H25.439V2.69571H25.1301V0.513775H24.3887V0.230621H26.1804Z" fill="#8DBBFF"/>
<path d="M27.2 2.69571H26.8911V0.230621H27.2V2.69571Z" fill="#8DBBFF"/>
<path d="M30.258 1.46336C30.258 1.64657 30.2271 1.81313 30.1808 1.97969C30.119 2.1296 30.0572 2.26284 29.9491 2.37944C29.8564 2.49603 29.7329 2.57931 29.5938 2.64593C29.4548 2.71256 29.3004 2.74587 29.1305 2.74587C28.9606 2.74587 28.8061 2.71256 28.6671 2.64593C28.5281 2.57931 28.4045 2.49603 28.3118 2.37944C28.2192 2.26284 28.1419 2.1296 28.0802 1.97969C28.0338 1.82979 28.0029 1.66323 28.0029 1.46336C28.0029 1.28014 28.0338 1.11358 28.0802 0.947024C28.1419 0.79712 28.2037 0.663868 28.3118 0.547276C28.4045 0.430684 28.5281 0.347408 28.6671 0.280784C28.8061 0.21416 28.9606 0.180847 29.1305 0.180847C29.3004 0.180847 29.4548 0.21416 29.5938 0.280784C29.7329 0.347408 29.8564 0.430684 29.9491 0.547276C30.0418 0.663868 30.119 0.79712 30.1808 0.947024C30.2271 1.11358 30.258 1.28014 30.258 1.46336ZM29.9336 1.46336C29.9336 1.31345 29.9182 1.18021 29.8719 1.06361C29.841 0.947021 29.7792 0.847087 29.702 0.763807C29.6247 0.680527 29.5475 0.613901 29.4394 0.563933C29.3467 0.513965 29.2231 0.49731 29.0996 0.49731C28.976 0.49731 28.8679 0.513965 28.7598 0.563933C28.6671 0.613901 28.5744 0.680527 28.4972 0.763807C28.42 0.847087 28.3736 0.947021 28.3273 1.06361C28.2964 1.18021 28.2655 1.31345 28.2655 1.46336C28.2655 1.61326 28.281 1.74651 28.3273 1.8631C28.3582 1.9797 28.42 2.07963 28.4972 2.16291C28.5744 2.24619 28.6516 2.31282 28.7598 2.34613C28.8524 2.3961 28.976 2.41275 29.0996 2.41275C29.2231 2.41275 29.3313 2.3961 29.4394 2.34613C29.5321 2.29616 29.6247 2.24619 29.702 2.16291C29.7792 2.07963 29.8255 1.9797 29.8719 1.8631C29.9182 1.76317 29.9336 1.61326 29.9336 1.46336Z" fill="#8DBBFF"/>
<path d="M31.2158 0.247325C31.2312 0.247325 31.2466 0.263979 31.2621 0.297291L32.5904 2.16277C32.5904 2.12945 32.5904 2.09614 32.5904 2.07949C32.5904 2.04617 32.5904 2.02952 32.5904 1.99621V0.247325H32.8684V2.71241H32.714C32.6831 2.71241 32.6677 2.71242 32.6522 2.69576C32.6368 2.6791 32.6213 2.6791 32.6059 2.64579L31.2775 0.780319C31.2775 0.813631 31.2775 0.830287 31.2775 0.863599C31.2775 0.896911 31.2775 0.913567 31.2775 0.946879V2.71241H30.9995V0.247325H31.154C31.1849 0.230669 31.2158 0.230669 31.2158 0.247325Z" fill="#8DBBFF"/>
<path d="M34.9072 0.613903C34.8918 0.630559 34.8918 0.647212 34.8763 0.647212C34.8609 0.647212 34.8454 0.663869 34.83 0.663869C34.8145 0.663869 34.7836 0.647211 34.7682 0.630555C34.7373 0.613899 34.7064 0.597244 34.6755 0.563932C34.6446 0.547276 34.5983 0.513966 34.5365 0.49731C34.4902 0.480654 34.4284 0.463996 34.3512 0.463996C34.2894 0.463996 34.2276 0.480654 34.1658 0.49731C34.1195 0.513966 34.0731 0.547278 34.0268 0.580589C33.9959 0.613901 33.965 0.663871 33.9496 0.697183C33.9341 0.747151 33.9187 0.797118 33.9187 0.847086C33.9187 0.91371 33.9341 0.980334 33.965 1.01365C33.9959 1.06361 34.0422 1.09692 34.0886 1.13023C34.1349 1.16355 34.1967 1.19686 34.2585 1.21351C34.3203 1.23017 34.3975 1.26349 34.4593 1.28014C34.5211 1.2968 34.5983 1.33011 34.6601 1.36342C34.7219 1.39673 34.7836 1.43004 34.83 1.48001C34.8763 1.52998 34.9226 1.57995 34.9535 1.66323C34.9844 1.72985 34.9999 1.81313 34.9999 1.92972C34.9999 2.02966 34.9844 2.14625 34.9535 2.22953C34.9226 2.32947 34.8763 2.41275 34.7991 2.47937C34.7373 2.54599 34.6601 2.61262 34.552 2.64593C34.4593 2.67924 34.3512 2.71255 34.2276 2.71255C34.0731 2.71255 33.9496 2.67924 33.826 2.62927C33.7024 2.5793 33.5943 2.49603 33.5171 2.39609L33.6098 2.22953C33.6252 2.21287 33.6252 2.21288 33.6407 2.19622C33.6561 2.17956 33.6715 2.17956 33.687 2.17956C33.7024 2.17956 33.7333 2.19622 33.7642 2.21287C33.7951 2.24618 33.826 2.26284 33.8723 2.29615C33.9187 2.32946 33.965 2.36278 34.0268 2.37943C34.0886 2.41274 34.1658 2.41275 34.2585 2.41275C34.3357 2.41275 34.3975 2.39609 34.4593 2.37943C34.5211 2.36278 34.5674 2.32947 34.5983 2.2795C34.6446 2.24619 34.6755 2.19622 34.691 2.12959C34.7064 2.07962 34.7219 2.01301 34.7219 1.94638C34.7219 1.87976 34.7064 1.81313 34.6755 1.76316C34.6446 1.7132 34.5983 1.67988 34.552 1.64657C34.5056 1.61326 34.4438 1.57995 34.3821 1.56329C34.3203 1.54663 34.243 1.51332 34.1813 1.49667C34.1195 1.48001 34.0422 1.4467 33.9805 1.41339C33.9187 1.38008 33.8569 1.34676 33.8106 1.29679C33.7642 1.24683 33.7179 1.18021 33.687 1.11358C33.6561 1.04696 33.6407 0.947022 33.6407 0.847086C33.6407 0.763806 33.6561 0.680526 33.687 0.597246C33.7179 0.513967 33.7642 0.44734 33.826 0.380716C33.8878 0.314092 33.965 0.264125 34.0422 0.230813C34.1349 0.197501 34.2276 0.180847 34.3512 0.180847C34.4747 0.180847 34.5983 0.197502 34.7064 0.24747C34.8145 0.297438 34.9072 0.347407 34.9844 0.430687L34.9072 0.613903Z" fill="#8DBBFF"/>
</svg>
